Comme-Extra-Light.ufo
<glyph name="quotedbl" format="1">
  <advance width="609"/>
  <unicode hex="0022"/>
  <outline>
    <contour>
      <point x="162" y="1048" type="line"/>
      <point x="213" y="1048" type="line"/>
      <point x="245" y="1512" type="line"/>
      <point x="118" y="1512" type="line"/>
    </contour>
    <contour>
      <point x="403" y="1048" type="line"/>
      <point x="454" y="1048" type="line"/>
      <point x="487" y="1512" type="line"/>
      <point x="359" y="1512" type="line"/>
    </contour>
  </outline>
</glyph>
<glyph name="dollar" format="1">
  <advance width="1202"/>
  <unicode hex="0024"/>
  <outline>
    <contour>
      <point x="573" y="-322" type="line"/>
      <point x="656" y="-322" type="line"/>
      <point x="662" y="20" type="line"/>
      <point x="573" y="20" type="line"/>
    </contour>
    <contour>
      <point x="580" y="1439" type="line"/>
      <point x="671" y="1439" type="line"/>
      <point x="671" y="1728" type="line"/>
      <point x="586" y="1728" type="line"/>
    </contour>
    <component base="S"/>
  </outline>
</glyph>
<glyph name="percent" format="1">
  <advance width="1747"/>
  <unicode hex="0025"/>
  <outline>
    <contour>
      <point x="403" y="791" type="curve" smooth="yes"/>
      <point x="237" y="791"/>
      <point x="177" y="918"/>
      <point x="177" y="1092" type="curve" smooth="yes"/>
      <point x="177" y="1262"/>
      <point x="236" y="1391"/>
      <point x="403" y="1391" type="curve" smooth="yes"/>
      <point x="567" y="1391"/>
      <point x="625" y="1268"/>
      <point x="625" y="1092" type="curve" smooth="yes"/>
      <point x="625" y="923"/>
      <point x="568" y="791"/>
    </contour>
    <contour>
      <point x="400" y="712" type="curve" smooth="yes"/>
      <point x="624" y="712"/>
      <point x="723" y="878"/>
      <point x="723" y="1092" type="curve" smooth="yes"/>
      <point x="723" y="1309"/>
      <point x="627" y="1469"/>
      <point x="400" y="1469" type="curve" smooth="yes"/>
      <point x="179" y="1469"/>
      <point x="80" y="1306"/>
      <point x="80" y="1092" type="curve" smooth="yes"/>
      <point x="80" y="878"/>
      <point x="175" y="712"/>
    </contour>
    <contour>
      <point x="386" y="0" type="line"/>
      <point x="498" y="0" type="line"/>
      <point x="1320" y="1458" type="line"/>
      <point x="1217" y="1458" type="line"/>
    </contour>
    <contour>
      <point x="1302" y="69" type="curve" smooth="yes"/>
      <point x="1137" y="69"/>
      <point x="1077" y="196"/>
      <point x="1077" y="370" type="curve" smooth="yes"/>
      <point x="1077" y="540"/>
      <point x="1136" y="669"/>
      <point x="1302" y="669" type="curve" smooth="yes"/>
      <point x="1466" y="669"/>
      <point x="1525" y="546"/>
      <point x="1525" y="370" type="curve" smooth="yes"/>
      <point x="1525" y="201"/>
      <point x="1467" y="69"/>
    </contour>
    <contour>
      <point x="1300" y="-10" type="curve" smooth="yes"/>
      <point x="1523" y="-10"/>
      <point x="1623" y="156"/>
      <point x="1623" y="369" type="curve" smooth="yes"/>
      <point x="1623" y="587"/>
      <point x="1526" y="748"/>
      <point x="1300" y="748" type="curve" smooth="yes"/>
      <point x="1079" y="748"/>
      <point x="978" y="584"/>
      <point x="978" y="369" type="curve" smooth="yes"/>
      <point x="978" y="156"/>
      <point x="1075" y="-10"/>
    </contour>
  </outline>
</glyph>
<glyph name="ampersand" format="1">
  <advance width="1470"/>
  <unicode hex="0026"/>
  <outline>
    <contour>
      <point x="1248" y="-25" type="line"/>
      <point x="1315" y="40" type="line"/>
      <point x="1150" y="215" type="line"/>
      <point x="1246" y="318"/>
      <point x="1317" y="440"/>
      <point x="1365" y="550" type="curve"/>
      <point x="1293" y="600" type="line"/>
      <point x="1235" y="477"/>
      <point x="1165" y="369"/>
      <point x="1085" y="283" type="curve"/>
      <point x="623" y="779" type="line"/>
      <point x="828" y="872"/>
      <point x="996" y="990"/>
      <point x="996" y="1168" type="curve" smooth="yes"/>
      <point x="996" y="1359"/>
      <point x="859" y="1477"/>
      <point x="665" y="1477" type="curve" smooth="yes"/>
      <point x="442" y="1477"/>
      <point x="287" y="1355"/>
      <point x="287" y="1171" type="curve" smooth="yes"/>
      <point x="287" y="1042"/>
      <point x="343" y="950"/>
      <point x="474" y="801" type="curve"/>
      <point x="276" y="687"/>
      <point x="167" y="551"/>
      <point x="167" y="370" type="curve" smooth="yes"/>
      <point x="167" y="123"/>
      <point x="341" y="-19"/>
      <point x="652" y="-19" type="curve" smooth="yes"/>
      <point x="821" y="-19"/>
      <point x="968" y="48"/>
      <point x="1085" y="149" type="curve"/>
    </contour>
    <contour>
      <point x="669" y="71" type="curve" smooth="yes"/>
      <point x="417" y="71"/>
      <point x="282" y="179"/>
      <point x="282" y="378" type="curve" smooth="yes"/>
      <point x="282" y="524"/>
      <point x="372" y="639"/>
      <point x="539" y="734" type="curve"/>
      <point x="1021" y="217" type="line"/>
      <point x="914" y="122"/>
      <point x="796" y="71"/>
    </contour>
    <contour>
      <point x="563" y="841" type="curve"/>
      <point x="418" y="1002"/>
      <point x="385" y="1065"/>
      <point x="385" y="1174" type="curve" smooth="yes"/>
      <point x="385" y="1305"/>
      <point x="499" y="1392"/>
      <point x="663" y="1392" type="curve" smooth="yes"/>
      <point x="808" y="1392"/>
      <point x="897" y="1306"/>
      <point x="897" y="1174" type="curve" smooth="yes"/>
      <point x="897" y="1018"/>
      <point x="731" y="920"/>
    </contour>
  </outline>
</glyph>
<glyph name="plus" format="1">
  <advance width="1148"/>
  <unicode hex="002B"/>
  <outline>
    <contour>
      <point x="516" y="208" type="line"/>
      <point x="626" y="208" type="line"/>
      <point x="626" y="607" type="line"/>
      <point x="990" y="607" type="line"/>
      <point x="990" y="699" type="line"/>
      <point x="626" y="699" type="line"/>
      <point x="626" y="1088" type="line"/>
      <point x="516" y="1088" type="line"/>
      <point x="516" y="699" type="line"/>
      <point x="145" y="699" type="line"/>
      <point x="145" y="607" type="line"/>
      <point x="516" y="607" type="line"/>
    </contour>
  </outline>
</glyph>
<glyph name="zero" format="1">
  <advance width="1219"/>
  <unicode hex="0030"/>
  <outline>
    <contour>
      <point x="300" y="541" type="curve" smooth="yes"/>
      <point x="237" y="198"/>
      <point x="300" y="81"/>
      <point x="509" y="214" type="curve" smooth="yes"/>
      <point x="719" y="340"/>
      <point x="860" y="577"/>
      <point x="923" y="921" type="curve" smooth="yes"/>
      <point x="985" y="1261"/>
      <point x="919" y="1366"/>
      <point x="710" y="1231" type="curve" smooth="yes"/>
      <point x="500" y="1098"/>
      <point x="362" y="881"/>
    </contour>
    <contour>
      <point x="362" y="491" type="curve" smooth="yes"/>
      <point x="473" y="797"/>
      <point x="602" y="1035"/>
      <point x="769" y="1178" type="curve" smooth="yes"/>
      <point x="937" y="1327"/>
      <point x="966" y="1275"/>
      <point x="860" y="970" type="curve" smooth="yes"/>
      <point x="754" y="661"/>
      <point x="617" y="413"/>
      <point x="450" y="264" type="curve" smooth="yes"/>
      <point x="283" y="121"/>
      <point x="251" y="183"/>
    </contour>
  </outline>
</glyph>
<glyph name="three" format="1">
  <advance width="1215"/>
  <unicode hex="0033"/>
  <outline>
    <contour>
      <point x="581" y="-20" type="curve" smooth="yes"/>
      <point x="895" y="-20"/>
      <point x="1061" y="149"/>
      <point x="1061" y="389" type="curve" smooth="yes"/>
      <point x="1061" y="613"/>
      <point x="933" y="739"/>
      <point x="725" y="775" type="curve"/>
      <point x="918" y="815"/>
      <point x="1023" y="919"/>
      <point x="1023" y="1118" type="curve" smooth="yes"/>
      <point x="1023" y="1349"/>
      <point x="835" y="1476"/>
      <point x="584" y="1476" type="curve" smooth="yes"/>
      <point x="448" y="1476"/>
      <point x="274" y="1436"/>
      <point x="161" y="1317" type="curve"/>
      <point x="222" y="1246" type="line"/>
      <point x="230" y="1246" type="line"/>
      <point x="327" y="1335"/>
      <point x="459" y="1376"/>
      <point x="582" y="1376" type="curve" smooth="yes"/>
      <point x="767" y="1376"/>
      <point x="908" y="1299"/>
      <point x="908" y="1115" type="curve" smooth="yes"/>
      <point x="908" y="861"/>
      <point x="682" y="831"/>
      <point x="490" y="824" type="curve" smooth="yes"/>
      <point x="424" y="824" type="line"/>
      <point x="440" y="721" type="line"/>
      <point x="488" y="721" type="line" smooth="yes"/>
      <point x="742" y="718"/>
      <point x="947" y="667"/>
      <point x="947" y="386" type="curve" smooth="yes"/>
      <point x="947" y="171"/>
      <point x="801" y="78"/>
      <point x="585" y="78" type="curve" smooth="yes"/>
      <point x="446" y="78"/>
      <point x="310" y="124"/>
      <point x="242" y="192" type="curve"/>
      <point x="232" y="192" type="line"/>
      <point x="172" y="126" type="line"/>
      <point x="236" y="49"/>
      <point x="392" y="-20"/>
    </contour>
  </outline>
</glyph>
<glyph name="four" format="1">
  <advance width="1219"/>
  <unicode hex="0034"/>
  <outline>
    <contour>
      <point x="812" y="0" type="line"/>
      <point x="929" y="0" type="line"/>
      <point x="929" y="396" type="line"/>
      <point x="1099" y="396" type="line"/>
      <point x="1109" y="490" type="line"/>
      <point x="929" y="490" type="line"/>
      <point x="928" y="1456" type="line"/>
      <point x="822" y="1456" type="line"/>
      <point x="132" y="516" type="line"/>
      <point x="149" y="396" type="line"/>
      <point x="812" y="396" type="line"/>
    </contour>
    <contour>
      <point x="254" y="492" type="line"/>
      <point x="810" y="1286" type="line"/>
      <point x="810" y="492" type="line"/>
    </contour>
  </outline>
</glyph>
<glyph name="five" format="1">
  <advance width="1219"/>
  <unicode hex="0035"/>
  <outline>
    <contour>
      <point x="576" y="-20" type="curve" smooth="yes"/>
      <point x="868" y="-20"/>
      <point x="1088" y="163"/>
      <point x="1088" y="468" type="curve" smooth="yes"/>
      <point x="1088" y="697"/>
      <point x="942" y="912"/>
      <point x="636" y="912" type="curve" smooth="yes"/>
      <point x="518" y="912"/>
      <point x="437" y="881"/>
      <point x="347" y="818" type="curve"/>
      <point x="391" y="1360" type="line"/>
      <point x="999" y="1360" type="line"/>
      <point x="1011" y="1456" type="line"/>
      <point x="287" y="1456" type="line"/>
      <point x="237" y="711" type="line"/>
      <point x="350" y="700" type="line"/>
      <point x="411" y="771"/>
      <point x="521" y="816"/>
      <point x="635" y="816" type="curve" smooth="yes"/>
      <point x="872" y="816"/>
      <point x="960" y="644"/>
      <point x="960" y="463" type="curve" smooth="yes"/>
      <point x="960" y="224"/>
      <point x="792" y="81"/>
      <point x="570" y="81" type="curve" smooth="yes"/>
      <point x="453" y="81"/>
      <point x="346" y="113"/>
      <point x="237" y="200" type="curve"/>
      <point x="225" y="200" type="line"/>
      <point x="168" y="124" type="line"/>
      <point x="280" y="33"/>
      <point x="420" y="-20"/>
    </contour>
  </outline>
</glyph>
<glyph name="seven" format="1">
  <advance width="1219"/>
  <unicode hex="0037"/>
  <outline>
    <contour>
      <point x="373" y="0" type="line"/>
      <point x="487" y="0" type="line"/>
      <point x="1043" y="1364" type="line"/>
      <point x="1043" y="1456" type="line"/>
      <point x="194" y="1456" type="line"/>
      <point x="222" y="1362" type="line"/>
      <point x="925" y="1362" type="line"/>
    </contour>
  </outline>
</glyph>
<glyph name="eight" format="1">
  <advance width="1219"/>
  <unicode hex="0038"/>
  <outline>
    <contour>
      <point x="609" y="-20" type="curve" smooth="yes"/>
      <point x="869" y="-20"/>
      <point x="1069" y="101"/>
      <point x="1069" y="353" type="curve" smooth="yes"/>
      <point x="1069" y="547"/>
      <point x="943" y="704"/>
      <point x="736" y="759" type="curve"/>
      <point x="917" y="814"/>
      <point x="1035" y="932"/>
      <point x="1035" y="1120" type="curve" smooth="yes"/>
      <point x="1035" y="1341"/>
      <point x="869" y="1476"/>
      <point x="611" y="1476" type="curve" smooth="yes"/>
      <point x="350" y="1476"/>
      <point x="182" y="1341"/>
      <point x="182" y="1120" type="curve" smooth="yes"/>
      <point x="182" y="934"/>
      <point x="311" y="802"/>
      <point x="482" y="756" type="curve"/>
      <point x="266" y="690"/>
      <point x="150" y="567"/>
      <point x="150" y="352" type="curve" smooth="yes"/>
      <point x="150" y="100"/>
      <point x="353" y="-20"/>
    </contour>
    <contour>
      <point x="609" y="76" type="curve" smooth="yes"/>
      <point x="379" y="76"/>
      <point x="259" y="175"/>
      <point x="259" y="366" type="curve" smooth="yes"/>
      <point x="259" y="558"/>
      <point x="411" y="662"/>
      <point x="609" y="703" type="curve"/>
      <point x="809" y="662"/>
      <point x="956" y="548"/>
      <point x="956" y="366" type="curve" smooth="yes"/>
      <point x="956" y="166"/>
      <point x="848" y="76"/>
    </contour>
    <contour>
      <point x="609" y="801" type="curve"/>
      <point x="406" y="846"/>
      <point x="304" y="959"/>
      <point x="304" y="1126" type="curve" smooth="yes"/>
      <point x="304" y="1284"/>
      <point x="426" y="1379"/>
      <point x="609" y="1379" type="curve" smooth="yes"/>
      <point x="794" y="1379"/>
      <point x="912" y="1284"/>
      <point x="912" y="1126" type="curve" smooth="yes"/>
      <point x="912" y="959"/>
      <point x="815" y="846"/>
    </contour>
  </outline>
</glyph>
<glyph name="nine" format="1">
  <advance width="1219"/>
  <unicode hex="0039"/>
  <outline>
    <contour>
      <point x="358" y="0" type="line"/>
      <point x="491" y="0" type="line"/>
      <point x="831" y="449" type="line"/>
      <point x="987" y="654"/>
      <point x="1087" y="796"/>
      <point x="1087" y="1023" type="curve" smooth="yes"/>
      <point x="1087" y="1244"/>
      <point x="941" y="1476"/>
      <point x="638" y="1476" type="curve" smooth="yes"/>
      <point x="351" y="1476"/>
      <point x="181" y="1270"/>
      <point x="181" y="1029" type="curve" smooth="yes"/>
      <point x="181" y="767"/>
      <point x="384" y="597"/>
      <point x="601" y="597" type="curve" smooth="yes"/>
      <point x="692" y="597"/>
      <point x="786" y="621"/>
      <point x="859" y="665" type="curve"/>
      <point x="813" y="607"/>
      <point x="768" y="548"/>
      <point x="723" y="489" type="curve" smooth="yes"/>
      <point x="601" y="330"/>
      <point x="480" y="171"/>
      <point x="358" y="12" type="curve"/>
    </contour>
    <contour>
      <point x="627" y="696" type="curve" smooth="yes"/>
      <point x="418" y="696"/>
      <point x="298" y="840"/>
      <point x="298" y="1028" type="curve" smooth="yes"/>
      <point x="298" y="1209"/>
      <point x="418" y="1380"/>
      <point x="638" y="1380" type="curve" smooth="yes"/>
      <point x="860" y="1380"/>
      <point x="974" y="1212"/>
      <point x="974" y="1033" type="curve" smooth="yes"/>
      <point x="974" y="755"/>
      <point x="739" y="696"/>
    </contour>
  </outline>
</glyph>
<glyph name="colon" format="1">
  <advance width="536"/>
  <unicode hex="003A"/>
  <outline>
    <contour>
      <point x="258" y="-17" type="curve" smooth="yes"/>
      <point x="329" y="-17"/>
      <point x="350" y="33"/>
      <point x="350" y="77" type="curve" smooth="yes"/>
      <point x="350" y="121"/>
      <point x="329" y="172"/>
      <point x="258" y="172" type="curve" smooth="yes"/>
      <point x="185" y="172"/>
      <point x="163" y="121"/>
      <point x="163" y="77" type="curve" smooth="yes"/>
      <point x="163" y="34"/>
      <point x="187" y="-17"/>
    </contour>
    <contour>
      <point x="258" y="876" type="curve" smooth="yes"/>
      <point x="329" y="876"/>
      <point x="350" y="925"/>
      <point x="350" y="970" type="curve" smooth="yes"/>
      <point x="350" y="1013"/>
      <point x="329" y="1064"/>
      <point x="258" y="1064" type="curve" smooth="yes"/>
      <point x="185" y="1064"/>
      <point x="163" y="1013"/>
      <point x="163" y="970" type="curve" smooth="yes"/>
      <point x="163" y="926"/>
      <point x="187" y="876"/>
    </contour>
  </outline>
</glyph>
<glyph name="semicolon" format="1">
  <advance width="547"/>
  <unicode hex="003B"/>
  <outline>
    <contour>
      <point x="200" y="-297" type="curve"/>
      <point x="260" y="-297" type="line"/>
      <point x="260" y="-297"/>
      <point x="352" y="128"/>
      <point x="352" y="162" type="curve"/>
      <point x="352" y="210" type="line"/>
      <point x="217" y="210" type="line"/>
      <point x="217" y="125"/>
      <point x="200" y="-297"/>
    </contour>
    <contour>
      <point x="282" y="867" type="curve" smooth="yes"/>
      <point x="353" y="867"/>
      <point x="374" y="916"/>
      <point x="374" y="961" type="curve" smooth="yes"/>
      <point x="374" y="1005"/>
      <point x="353" y="1054"/>
      <point x="282" y="1054" type="curve" smooth="yes"/>
      <point x="209" y="1054"/>
      <point x="187" y="1005"/>
      <point x="187" y="961" type="curve" smooth="yes"/>
      <point x="187" y="916"/>
      <point x="210" y="867"/>
    </contour>
  </outline>
</glyph>
<glyph name="less" format="1">
  <advance width="1183"/>
  <unicode hex="003C"/>
  <outline>
    <contour>
      <point x="1036" y="117" type="line"/>
      <point x="1038" y="222" type="line"/>
      <point x="227" y="606" type="line"/>
      <point x="1039" y="1014" type="line"/>
      <point x="1039" y="1123" type="line"/>
      <point x="102" y="637" type="line"/>
      <point x="102" y="568" type="line"/>
    </contour>
  </outline>
</glyph>
<glyph name="greater" format="1">
  <advance width="1193"/>
  <unicode hex="003E"/>
  <outline>
    <contour>
      <point x="127" y="124" type="line"/>
      <point x="1064" y="566" type="line"/>
      <point x="1064" y="637" type="line"/>
      <point x="131" y="1131" type="line"/>
      <point x="131" y="1022" type="line"/>
      <point x="929" y="606" type="line"/>
      <point x="127" y="230" type="line"/>
    </contour>
  </outline>
</glyph>
<glyph name="at" format="1">
  <advance width="2071"/>
  <unicode hex="0040"/>
  <outline>
    <contour>
      <point x="1011" y="-235" type="curve" smooth="yes"/>
      <point x="1212" y="-235"/>
      <point x="1399" y="-185"/>
      <point x="1535" y="-93" type="curve"/>
      <point x="1501" y="-17" type="line"/>
      <point x="1360" y="-104"/>
      <point x="1189" y="-145"/>
      <point x="1015" y="-145" type="curve" smooth="yes"/>
      <point x="597" y="-145"/>
      <point x="303" y="124"/>
      <point x="303" y="597" type="curve" smooth="yes"/>
      <point x="303" y="1072"/>
      <point x="637" y="1411"/>
      <point x="1078" y="1411" type="curve" smooth="yes"/>
      <point x="1493" y="1411"/>
      <point x="1764" y="1142"/>
      <point x="1764" y="751" type="curve" smooth="yes"/>
      <point x="1764" y="497"/>
      <point x="1646" y="297"/>
      <point x="1486" y="297" type="curve" smooth="yes"/>
      <point x="1380" y="297"/>
      <point x="1331" y="387"/>
      <point x="1331" y="489" type="curve" smooth="yes"/>
      <point x="1331" y="620"/>
      <point x="1350" y="753"/>
      <point x="1395" y="1024" type="curve"/>
      <point x="1306" y="1058"/>
      <point x="1193" y="1088"/>
      <point x="1090" y="1088" type="curve" smooth="yes"/>
      <point x="798" y="1088"/>
      <point x="636" y="847"/>
      <point x="636" y="563" type="curve" smooth="yes"/>
      <point x="636" y="334"/>
      <point x="751" y="194"/>
      <point x="938" y="194" type="curve" smooth="yes"/>
      <point x="1090" y="194"/>
      <point x="1196" y="312"/>
      <point x="1250" y="472" type="curve"/>
      <point x="1257" y="277"/>
      <point x="1381" y="214"/>
      <point x="1486" y="214" type="curve"/>
      <point x="1667" y="214"/>
      <point x="1864" y="392"/>
      <point x="1864" y="748" type="curve" smooth="yes"/>
      <point x="1864" y="1214"/>
      <point x="1529" y="1503"/>
      <point x="1081" y="1503" type="curve" smooth="yes"/>
      <point x="560" y="1503"/>
      <point x="189" y="1119"/>
      <point x="189" y="597" type="curve" smooth="yes"/>
      <point x="189" y="74"/>
      <point x="513" y="-235"/>
    </contour>
    <contour>
      <point x="953" y="284" type="curve" smooth="yes"/>
      <point x="829" y="284"/>
      <point x="753" y="375"/>
      <point x="752" y="568" type="curve" smooth="yes"/>
      <point x="752" y="832"/>
      <point x="894" y="1007"/>
      <point x="1101" y="1007" type="curve" smooth="yes"/>
      <point x="1136" y="1007"/>
      <point x="1218" y="993"/>
      <point x="1274" y="981" type="curve"/>
      <point x="1223" y="686" type="line"/>
      <point x="1187" y="475"/>
      <point x="1113" y="284"/>
    </contour>
  </outline>
</glyph>
<glyph name="B" format="1">
  <advance width="1368"/>
  <unicode hex="0042"/>
  <outline>
    <contour>
      <point x="676" y="1456" type="move" name="top"/>
    </contour>
    <contour>
      <point x="567" y="-12" type="curve" smooth="yes"/>
      <point x="1057" y="-12"/>
      <point x="1243" y="106"/>
      <point x="1243" y="410" type="curve" smooth="yes"/>
      <point x="1243" y="600"/>
      <point x="1142" y="723"/>
      <point x="924" y="770" type="curve"/>
      <point x="1134" y="833"/>
      <point x="1185" y="949"/>
      <point x="1185" y="1102" type="curve" smooth="yes"/>
      <point x="1185" y="1332"/>
      <point x="1057" y="1466"/>
      <point x="574" y="1466" type="curve" smooth="yes"/>
      <point x="472" y="1466"/>
      <point x="347" y="1461"/>
      <point x="216" y="1451" type="curve"/>
      <point x="216" y="3" type="line"/>
      <point x="348" y="-7"/>
      <point x="464" y="-12"/>
    </contour>
    <contour>
      <point x="597" y="85" type="curve" smooth="yes"/>
      <point x="522" y="85"/>
      <point x="436" y="88"/>
      <point x="341" y="93" type="curve"/>
      <point x="341" y="725" type="line"/>
      <point x="650" y="725" type="line" smooth="yes"/>
      <point x="969" y="725"/>
      <point x="1118" y="647"/>
      <point x="1118" y="404" type="curve" smooth="yes"/>
      <point x="1118" y="187"/>
      <point x="1005" y="85"/>
    </contour>
    <contour>
      <point x="341" y="818" type="line"/>
      <point x="341" y="1364" type="line"/>
      <point x="422" y="1368"/>
      <point x="523" y="1372"/>
      <point x="595" y="1372" type="curve" smooth="yes"/>
      <point x="948" y="1372"/>
      <point x="1070" y="1292"/>
      <point x="1070" y="1094" type="curve" smooth="yes"/>
      <point x="1070" y="863"/>
      <point x="913" y="818"/>
      <point x="710" y="818" type="curve" smooth="yes"/>
    </contour>
  </outline>
</glyph>
<glyph name="C" format="1">
  <advance width="1392"/>
  <unicode hex="0043"/>
  <outline>
    <contour>
      <point x="806" y="1455" type="move" name="top"/>
    </contour>
    <contour>
      <point x="815" y="0" type="move" name="bot"/>
    </contour>
    <contour>
      <point x="787" y="-20" type="curve" smooth="yes"/>
      <point x="1017" y="-20"/>
      <point x="1234" y="102"/>
      <point x="1304" y="315" type="curve"/>
      <point x="1219" y="348" type="line"/>
      <point x="1205" y="348" type="line"/>
      <point x="1146" y="185"/>
      <point x="979" y="78"/>
      <point x="792" y="78" type="curve" smooth="yes"/>
      <point x="477" y="78"/>
      <point x="276" y="317"/>
      <point x="276" y="728" type="curve" smooth="yes"/>
      <point x="276" y="1140"/>
      <point x="485" y="1378"/>
      <point x="808" y="1378" type="curve" smooth="yes"/>
      <point x="985" y="1378"/>
      <point x="1145" y="1273"/>
      <point x="1203" y="1109" type="curve"/>
      <point x="1218" y="1109" type="line"/>
      <point x="1303" y="1142" type="line"/>
      <point x="1233" y="1355"/>
      <point x="1023" y="1477"/>
      <point x="804" y="1477" type="curve" smooth="yes"/>
      <point x="409" y="1477"/>
      <point x="149" y="1193"/>
      <point x="149" y="728" type="curve" smooth="yes"/>
      <point x="149" y="263"/>
      <point x="404" y="-20"/>
    </contour>
  </outline>
</glyph>
<glyph name="E" format="1">
  <advance width="1191"/>
  <unicode hex="0045"/>
  <outline>
    <contour>
      <point x="686" y="1455" type="move" name="top"/>
    </contour>
    <contour>
      <point x="814" y="0" type="move" name="ogonek"/>
    </contour>
    <contour>
      <point x="616" y="0" type="move" name="bot"/>
    </contour>
    <contour>
      <point x="216" y="0" type="line"/>
      <point x="1100" y="0" type="line"/>
      <point x="1109" y="96" type="line"/>
      <point x="341" y="96" type="line"/>
      <point x="341" y="700" type="line"/>
      <point x="1025" y="700" type="line"/>
      <point x="1025" y="795" type="line"/>
      <point x="341" y="795" type="line"/>
      <point x="340" y="1360" type="line"/>
      <point x="1100" y="1360" type="line"/>
      <point x="1104" y="1455" type="line"/>
      <point x="216" y="1455" type="line"/>
    </contour>
  </outline>
</glyph>
<glyph name="I" format="1">
  <advance width="822"/>
  <unicode hex="0049"/>
  <outline>
    <contour>
      <point x="410" y="1455" type="move" name="top"/>
    </contour>
    <contour>
      <point x="426" y="0" type="move" name="ogonek"/>
    </contour>
    <contour>
      <point x="142" y="0" type="line"/>
      <point x="677" y="0" type="line"/>
      <point x="677" y="77" type="line"/>
      <point x="473" y="77" type="line"/>
      <point x="473" y="1378" type="line"/>
      <point x="677" y="1378" type="line"/>
      <point x="677" y="1455" type="line"/>
      <point x="142" y="1455" type="line"/>
      <point x="142" y="1378" type="line"/>
      <point x="348" y="1378" type="line"/>
      <point x="348" y="77" type="line"/>
      <point x="142" y="77" type="line"/>
    </contour>
  </outline>
</glyph>
<glyph name="L" format="1">
  <advance width="1088"/>
  <unicode hex="004C"/>
  <outline>
    <contour>
      <point x="504" y="1455" type="move" name="top"/>
    </contour>
    <contour>
      <point x="635" y="0" type="move" name="bot"/>
    </contour>
    <contour>
      <point x="288" y="730" type="move" name="mid"/>
    </contour>
    <contour>
      <point x="216" y="0" type="line"/>
      <point x="1044" y="0" type="line"/>
      <point x="1044" y="96" type="line"/>
      <point x="341" y="96" type="line"/>
      <point x="341" y="1455" type="line"/>
      <point x="216" y="1455" type="line"/>
    </contour>
  </outline>
</glyph>
<glyph name="N" format="1">
  <advance width="1536"/>
  <unicode hex="004E"/>
  <outline>
    <contour>
      <point x="778" y="1455" type="move" name="top"/>
    </contour>
    <contour>
      <point x="773" y="0" type="move" name="bot"/>
    </contour>
    <contour>
      <point x="216" y="0" type="line"/>
      <point x="325" y="0" type="line"/>
      <point x="325" y="911" type="line"/>
      <point x="313" y="1296" type="line"/>
      <point x="1200" y="0" type="line"/>
      <point x="1320" y="0" type="line"/>
      <point x="1320" y="1455" type="line"/>
      <point x="1213" y="1455" type="line"/>
      <point x="1213" y="535" type="line"/>
      <point x="1220" y="154" type="line"/>
      <point x="331" y="1455" type="line"/>
      <point x="216" y="1455" type="line"/>
    </contour>
  </outline>
</glyph>
<glyph name="P" format="1">
  <advance width="1236"/>
  <unicode hex="0050"/>
  <outline>
    <contour>
      <point x="633" y="1455" type="move" name="top"/>
    </contour>
    <contour>
      <point x="216" y="0" type="line"/>
      <point x="341" y="0" type="line"/>
      <point x="341" y="699" type="line"/>
      <point x="421" y="694"/>
      <point x="493" y="692"/>
      <point x="558" y="692" type="curve" smooth="yes"/>
      <point x="1026" y="692"/>
      <point x="1138" y="829"/>
      <point x="1138" y="1096" type="curve" smooth="yes"/>
      <point x="1138" y="1353"/>
      <point x="1010" y="1465"/>
      <point x="562" y="1465" type="curve" smooth="yes"/>
      <point x="463" y="1465"/>
      <point x="349" y="1459"/>
      <point x="216" y="1448" type="curve"/>
    </contour>
    <contour>
      <point x="557" y="784" type="curve" smooth="yes"/>
      <point x="493" y="784"/>
      <point x="422" y="787"/>
      <point x="341" y="791" type="curve"/>
      <point x="341" y="1363" type="line"/>
      <point x="431" y="1369"/>
      <point x="510" y="1372"/>
      <point x="579" y="1372" type="curve" smooth="yes"/>
      <point x="929" y="1372"/>
      <point x="1018" y="1295"/>
      <point x="1018" y="1097" type="curve" smooth="yes"/>
      <point x="1018" y="865"/>
      <point x="941" y="784"/>
    </contour>
  </outline>
</glyph>
<glyph name="R" format="1">
  <advance width="1384"/>
  <unicode hex="0052"/>
  <outline>
    <contour>
      <point x="703" y="1456" type="move" name="top"/>
    </contour>
    <contour>
      <point x="708" y="0" type="move" name="bot"/>
    </contour>
    <contour>
      <point x="217" y="0" type="line"/>
      <point x="342" y="0" type="line"/>
      <point x="342" y="725" type="line"/>
      <point x="801" y="726" type="line"/>
      <point x="1148" y="0" type="line"/>
      <point x="1274" y="0" type="line"/>
      <point x="1274" y="15" type="line"/>
      <point x="925" y="738" type="line"/>
      <point x="1118" y="775"/>
      <point x="1224" y="878"/>
      <point x="1224" y="1098" type="curve" smooth="yes"/>
      <point x="1223" y="1377"/>
      <point x="1089" y="1466"/>
      <point x="630" y="1466" type="curve" smooth="yes"/>
      <point x="516" y="1466"/>
      <point x="360" y="1460"/>
      <point x="217" y="1451" type="curve"/>
    </contour>
    <contour>
      <point x="342" y="814" type="line"/>
      <point x="342" y="1363" type="line"/>
      <point x="462" y="1371"/>
      <point x="567" y="1373"/>
      <point x="652" y="1373" type="curve" smooth="yes"/>
      <point x="1018" y="1373"/>
      <point x="1108" y="1303"/>
      <point x="1108" y="1095" type="curve" smooth="yes"/>
      <point x="1108" y="890"/>
      <point x="1029" y="814"/>
      <point x="720" y="814" type="curve" smooth="yes"/>
    </contour>
  </outline>
</glyph>
<glyph name="V" format="1">
  <advance width="1373"/>
  <unicode hex="0056"/>
  <outline>
    <contour>
      <point x="646" y="0" type="line"/>
      <point x="723" y="0" type="line"/>
      <point x="1299" y="1455" type="line"/>
      <point x="1172" y="1455" type="line"/>
      <point x="1125" y="1324"/>
      <point x="733" y="326"/>
      <point x="687" y="193" type="curve"/>
      <point x="642" y="326"/>
      <point x="246" y="1324"/>
      <point x="199" y="1455" type="curve"/>
      <point x="75" y="1455" type="line"/>
    </contour>
  </outline>
</glyph>
<glyph name="Y" format="1">
  <advance width="1258"/>
  <unicode hex="0059"/>
  <outline>
    <contour>
      <point x="629" y="1455" type="move" name="top"/>
    </contour>
    <contour>
      <point x="583" y="0" type="line"/>
      <point x="706" y="0" type="line"/>
      <point x="706" y="583" type="line"/>
      <point x="1189" y="1455" type="line"/>
      <point x="1067" y="1455" type="line"/>
      <point x="644" y="685" type="line"/>
      <point x="188" y="1455" type="line"/>
      <point x="69" y="1455" type="line"/>
      <point x="583" y="582" type="line"/>
    </contour>
  </outline>
</glyph>
<glyph name="Z" format="1">
  <advance width="1198"/>
  <unicode hex="005A"/>
  <outline>
    <contour>
      <point x="663" y="1455" type="move" name="top"/>
    </contour>
    <contour>
      <point x="645" y="0" type="move" name="bot"/>
    </contour>
    <contour>
      <point x="125" y="0" type="line"/>
      <point x="1091" y="0" type="line"/>
      <point x="1101" y="96" type="line"/>
      <point x="258" y="96" type="line"/>
      <point x="1094" y="1373" type="line"/>
      <point x="1084" y="1455" type="line"/>
      <point x="170" y="1455" type="line"/>
      <point x="171" y="1360" type="line"/>
      <point x="958" y="1360" type="line"/>
      <point x="125" y="94" type="line"/>
    </contour>
  </outline>
</glyph>
<glyph name="grave" format="1">
  <advance width="844"/>
  <unicode hex="0060"/>
  <outline>
    <contour>
      <point x="445" y="1077" type="move" name="_top"/>
    </contour>
    <contour>
      <point x="394" y="1244" type="line"/>
      <point x="469" y="1244" type="line"/>
      <point x="261" y="1603" type="line"/>
      <point x="104" y="1603" type="line"/>
    </contour>
  </outline>
</glyph>
<glyph name="a" format="1">
  <advance width="1119"/>
  <unicode hex="0061"/>
  <outline>
    <contour>
      <point x="548" y="1082" type="move" name="top"/>
    </contour>
    <contour>
      <point x="899" y="0" type="move" name="ogonek"/>
    </contour>
    <contour>
      <point x="530" y="0" type="move" name="bot"/>
    </contour>
    <contour>
      <point x="450" y="-16" type="curve" smooth="yes"/>
      <point x="581" y="-16"/>
      <point x="717" y="14"/>
      <point x="835" y="165" type="curve"/>
      <point x="850" y="1" type="line"/>
      <point x="947" y="1" type="line"/>
      <point x="947" y="724" type="line" smooth="yes"/>
      <point x="947" y="1008"/>
      <point x="785" y="1103"/>
      <point x="546" y="1103" type="curve" smooth="yes"/>
      <point x="417" y="1103"/>
      <point x="259" y="1064"/>
      <point x="171" y="1011" type="curve"/>
      <point x="214" y="919" type="line"/>
      <point x="310" y="980"/>
      <point x="440" y="1010"/>
      <point x="548" y="1010" type="curve" smooth="yes"/>
      <point x="730" y="1010"/>
      <point x="823" y="920"/>
      <point x="823" y="742" type="curve" smooth="yes"/>
      <point x="823" y="603" type="line"/>
      <point x="596" y="606" type="line" smooth="yes"/>
      <point x="253" y="606"/>
      <point x="116" y="491"/>
      <point x="116" y="282" type="curve" smooth="yes"/>
      <point x="116" y="91"/>
      <point x="252" y="-16"/>
    </contour>
    <contour>
      <point x="463" y="75" type="curve" smooth="yes"/>
      <point x="341" y="75"/>
      <point x="239" y="136"/>
      <point x="239" y="282" type="curve" smooth="yes"/>
      <point x="239" y="438"/>
      <point x="304" y="523"/>
      <point x="614" y="523" type="curve" smooth="yes"/>
      <point x="823" y="521" type="line"/>
      <point x="823" y="259" type="line"/>
      <point x="717" y="116"/>
      <point x="596" y="75"/>
    </contour>
  </outline>
</glyph>
<glyph name="c" format="1">
  <advance width="1087"/>
  <unicode hex="0063"/>
  <outline>
    <contour>
      <point x="616" y="1082" type="move" name="top"/>
    </contour>
    <contour>
      <point x="609" y="0" type="move" name="bot"/>
    </contour>
    <contour>
      <point x="598" y="-20" type="curve" smooth="yes"/>
      <point x="804" y="-20"/>
      <point x="944" y="87"/>
      <point x="985" y="230" type="curve"/>
      <point x="913" y="265" type="line"/>
      <point x="896" y="265" type="line"/>
      <point x="854" y="147"/>
      <point x="745" y="71"/>
      <point x="600" y="71" type="curve" smooth="yes"/>
      <point x="374" y="71"/>
      <point x="246" y="251"/>
      <point x="246" y="542" type="curve" smooth="yes"/>
      <point x="246" y="833"/>
      <point x="374" y="1013"/>
      <point x="601" y="1013" type="curve" smooth="yes"/>
      <point x="746" y="1013"/>
      <point x="855" y="935"/>
      <point x="896" y="817" type="curve"/>
      <point x="911" y="817" type="line"/>
      <point x="985" y="854" type="line"/>
      <point x="943" y="997"/>
      <point x="804" y="1103"/>
      <point x="598" y="1103" type="curve" smooth="yes"/>
      <point x="302" y="1103"/>
      <point x="119" y="887"/>
      <point x="119" y="542" type="curve" smooth="yes"/>
      <point x="119" y="197"/>
      <point x="302" y="-20"/>
    </contour>
  </outline>
</glyph>
<glyph name="d" format="1">
  <advance width="1235"/>
  <unicode hex="0064"/>
  <outline>
    <contour>
      <point x="577" y="1082" type="move" name="top"/>
    </contour>
    <contour>
      <point x="1062" y="1127" type="move" name="caron.alt"/>
    </contour>
    <contour>
      <point x="991" y="1273" type="move" name="mid"/>
    </contour>
    <contour>
      <point x="585" y="-20" type="curve" smooth="yes"/>
      <point x="734" y="-20"/>
      <point x="867" y="44"/>
      <point x="940" y="157" type="curve"/>
      <point x="950" y="0" type="line"/>
      <point x="1052" y="0" type="line"/>
      <point x="1052" y="1560" type="line"/>
      <point x="925" y="1540" type="line"/>
      <point x="925" y="1171" type="line"/>
      <point x="932" y="932" type="line"/>
      <point x="873" y="1037"/>
      <point x="755" y="1102"/>
      <point x="594" y="1102" type="curve"/>
      <point x="299" y="1102"/>
      <point x="119" y="886"/>
      <point x="119" y="547" type="curve" smooth="yes"/>
      <point x="119" y="203"/>
      <point x="292" y="-20"/>
    </contour>
    <contour>
      <point x="591" y="71" type="curve" smooth="yes"/>
      <point x="371" y="71"/>
      <point x="246" y="253"/>
      <point x="246" y="547" type="curve" smooth="yes"/>
      <point x="246" y="835"/>
      <point x="376" y="1012"/>
      <point x="599" y="1012" type="curve" smooth="yes"/>
      <point x="744" y="1012"/>
      <point x="866" y="942"/>
      <point x="928" y="801" type="curve"/>
      <point x="928" y="263" type="line"/>
      <point x="870" y="142"/>
      <point x="744" y="71"/>
    </contour>
  </outline>
</glyph>
<glyph name="e" format="1">
  <advance width="1129"/>
  <unicode hex="0065"/>
  <outline>
    <contour>
      <point x="596" y="1082" type="move" name="top"/>
    </contour>
    <contour>
      <point x="776" y="19" type="move" name="ogonek"/>
    </contour>
    <contour>
      <point x="615" y="0" type="move" name="bot"/>
    </contour>
    <contour>
      <point x="619" y="-20" type="curve" smooth="yes"/>
      <point x="771" y="-20"/>
      <point x="888" y="21"/>
      <point x="985" y="77" type="curve"/>
      <point x="949" y="160" type="line"/>
      <point x="937" y="160" type="line"/>
      <point x="841" y="106"/>
      <point x="748" y="74"/>
      <point x="634" y="74" type="curve" smooth="yes"/>
      <point x="425" y="74"/>
      <point x="256" y="214"/>
      <point x="245" y="534" type="curve"/>
      <point x="1004" y="534" type="line"/>
      <point x="1004" y="535"/>
      <point x="1010" y="582"/>
      <point x="1010" y="615" type="curve" smooth="yes"/>
      <point x="1010" y="919"/>
      <point x="864" y="1103"/>
      <point x="609" y="1103" type="curve" smooth="yes"/>
      <point x="349" y="1103"/>
      <point x="123" y="901"/>
      <point x="123" y="537" type="curve" smooth="yes"/>
      <point x="123" y="199"/>
      <point x="331" y="-20"/>
    </contour>
    <contour>
      <point x="249" y="614" type="line"/>
      <point x="271" y="849"/>
      <point x="406" y="1011"/>
      <point x="618" y="1011" type="curve" smooth="yes"/>
      <point x="816" y="1011"/>
      <point x="903" y="871"/>
      <point x="909" y="614" type="curve"/>
    </contour>
  </outline>
</glyph>
<glyph name="f" format="1">
  <advance width="740"/>
  <unicode hex="0066"/>
  <outline>
    <contour>
      <point x="421" y="1455" type="move" name="top"/>
    </contour>
    <contour>
      <point x="283" y="0" type="line"/>
      <point x="407" y="0" type="line"/>
      <point x="407" y="1012" type="line"/>
      <point x="668" y="1012" type="line"/>
      <point x="668" y="1082" type="line"/>
      <point x="407" y="1082" type="line"/>
      <point x="407" y="1169" type="line" smooth="yes"/>
      <point x="407" y="1394"/>
      <point x="464" y="1427"/>
      <point x="587" y="1427" type="curve" smooth="yes"/>
      <point x="630" y="1427"/>
      <point x="694" y="1418"/>
      <point x="696" y="1418" type="curve"/>
      <point x="702" y="1499" type="line"/>
      <point x="695" y="1500"/>
      <point x="637" y="1514"/>
      <point x="558" y="1514" type="curve" smooth="yes"/>
      <point x="378" y="1514"/>
      <point x="283" y="1429"/>
      <point x="283" y="1168" type="curve" smooth="yes"/>
      <point x="283" y="1080" type="line"/>
      <point x="78" y="1065" type="line"/>
      <point x="73" y="1012" type="line"/>
      <point x="283" y="1012" type="line"/>
    </contour>
  </outline>
</glyph>
<glyph name="g" format="1">
  <advance width="1241"/>
  <unicode hex="0067"/>
  <outline>
    <contour>
      <point x="612" y="1082" type="move" name="top"/>
    </contour>
    <contour>
      <point x="569" y="-460" type="curve" smooth="yes"/>
      <point x="954" y="-460"/>
      <point x="1069" y="-264"/>
      <point x="1069" y="70" type="curve" smooth="yes"/>
      <point x="1069" y="1082" type="line"/>
      <point x="963" y="1082" type="line"/>
      <point x="954" y="924" type="line"/>
      <point x="892" y="1026"/>
      <point x="774" y="1103"/>
      <point x="605" y="1103" type="curve" smooth="yes"/>
      <point x="249" y="1103"/>
      <point x="118" y="818"/>
      <point x="118" y="539" type="curve" smooth="yes"/>
      <point x="118" y="272"/>
      <point x="256" y="-6"/>
      <point x="594" y="-6" type="curve" smooth="yes"/>
      <point x="766" y="-6"/>
      <point x="883" y="73"/>
      <point x="949" y="171" type="curve"/>
      <point x="949" y="48" type="line" smooth="yes"/>
      <point x="949" y="-254"/>
      <point x="837" y="-364"/>
      <point x="559" y="-364" type="curve" smooth="yes"/>
      <point x="461" y="-364"/>
      <point x="346" y="-342"/>
      <point x="286" y="-318" type="curve"/>
      <point x="271" y="-318" type="line"/>
      <point x="265" y="-413" type="line"/>
      <point x="322" y="-433"/>
      <point x="441" y="-460"/>
    </contour>
    <contour>
      <point x="597" y="85" type="curve" smooth="yes"/>
      <point x="340" y="85"/>
      <point x="243" y="327"/>
      <point x="243" y="540" type="curve" smooth="yes"/>
      <point x="243" y="764"/>
      <point x="339" y="1012"/>
      <point x="597" y="1012" type="curve" smooth="yes"/>
      <point x="812" y="1012"/>
      <point x="902" y="879"/>
      <point x="948" y="788" type="curve"/>
      <point x="948" y="291" type="line"/>
      <point x="906" y="218"/>
      <point x="816" y="85"/>
    </contour>
  </outline>
</glyph>
<glyph name="i" format="1">
  <advance width="521"/>
  <unicode hex="0069"/>
  <outline>
    <contour>
      <point x="278" y="1082" type="move" name="top"/>
    </contour>
    <contour>
      <point x="275" y="0" type="move" name="ogonek"/>
    </contour>
    <contour>
      <point x="212" y="0" type="line"/>
      <point x="336" y="0" type="line"/>
      <point x="336" y="1082" type="line"/>
      <point x="212" y="1082" type="line"/>
    </contour>
    <component base="dotaccent" xOffset="105"/>
  </outline>
</glyph>
<glyph name="m" format="1">
  <advance width="1799"/>
  <unicode hex="006D"/>
  <outline>
    <contour>
      <point x="942" y="1082" type="move" name="top"/>
    </contour>
    <contour>
      <point x="180" y="0" type="line"/>
      <point x="305" y="0" type="line"/>
      <point x="305" y="660" type="line"/>
      <point x="314" y="837"/>
      <point x="400" y="1012"/>
      <point x="626" y="1012" type="curve" smooth="yes"/>
      <point x="797" y="1012"/>
      <point x="843" y="893"/>
      <point x="843" y="682" type="curve" smooth="yes"/>
      <point x="843" y="0" type="line"/>
      <point x="968" y="0" type="line"/>
      <point x="968" y="647" type="line" smooth="yes"/>
      <point x="969" y="840"/>
      <point x="1077" y="1012"/>
      <point x="1291" y="1012" type="curve" smooth="yes"/>
      <point x="1472" y="1012"/>
      <point x="1507" y="873"/>
      <point x="1507" y="694" type="curve" smooth="yes"/>
      <point x="1507" y="0" type="line"/>
      <point x="1631" y="0" type="line"/>
      <point x="1631" y="673" type="line" smooth="yes"/>
      <point x="1631" y="966"/>
      <point x="1532" y="1103"/>
      <point x="1305" y="1103" type="curve" smooth="yes"/>
      <point x="1140" y="1103"/>
      <point x="1005" y="1027"/>
      <point x="943" y="858" type="curve"/>
      <point x="904" y="1011"/>
      <point x="806" y="1103"/>
      <point x="640" y="1103" type="curve" smooth="yes"/>
      <point x="489" y="1103"/>
      <point x="370" y="1035"/>
      <point x="298" y="891" type="curve"/>
      <point x="283" y="1082" type="line"/>
      <point x="180" y="1082" type="line"/>
    </contour>
  </outline>
</glyph>
<glyph name="n" format="1">
  <advance width="1177"/>
  <unicode hex="006E"/>
  <outline>
    <contour>
      <point x="660" y="1082" type="move" name="top"/>
    </contour>
    <contour>
      <point x="591" y="0" type="move" name="bot"/>
    </contour>
    <contour>
      <point x="180" y="0" type="line"/>
      <point x="305" y="0" type="line"/>
      <point x="305" y="651" type="line" smooth="yes"/>
      <point x="305" y="829"/>
      <point x="380" y="1012"/>
      <point x="647" y="1012" type="curve" smooth="yes"/>
      <point x="832" y="1012"/>
      <point x="886" y="887"/>
      <point x="885" y="696" type="curve" smooth="yes"/>
      <point x="885" y="0" type="line"/>
      <point x="1010" y="0" type="line"/>
      <point x="1010" y="658" type="line" smooth="yes"/>
      <point x="1010" y="959"/>
      <point x="903" y="1103"/>
      <point x="662" y="1103" type="curve" smooth="yes"/>
      <point x="473" y="1103"/>
      <point x="358" y="1023"/>
      <point x="298" y="889" type="curve"/>
      <point x="282" y="1082" type="line"/>
      <point x="180" y="1082" type="line"/>
    </contour>
  </outline>
</glyph>
<glyph name="o" format="1">
  <advance width="1204"/>
  <unicode hex="006F"/>
  <outline>
    <contour>
      <point x="605" y="1082" type="move" name="top"/>
    </contour>
    <contour>
      <point x="678" y="0" type="move" name="ogonek"/>
    </contour>
    <contour>
      <point x="603" y="70" type="curve" smooth="yes"/>
      <point x="374" y="70"/>
      <point x="246" y="269"/>
      <point x="246" y="540" type="curve" smooth="yes"/>
      <point x="246" y="824"/>
      <point x="374" y="1013"/>
      <point x="603" y="1013" type="curve" smooth="yes"/>
      <point x="830" y="1013"/>
      <point x="959" y="824"/>
      <point x="959" y="539" type="curve" smooth="yes"/>
      <point x="959" y="269"/>
      <point x="831" y="70"/>
    </contour>
    <contour>
      <point x="603" y="-20" type="curve" smooth="yes"/>
      <point x="900" y="-20"/>
      <point x="1085" y="213"/>
      <point x="1085" y="541" type="curve" smooth="yes"/>
      <point x="1085" y="882"/>
      <point x="901" y="1103"/>
      <point x="603" y="1103" type="curve" smooth="yes"/>
      <point x="304" y="1103"/>
      <point x="119" y="882"/>
      <point x="119" y="541" type="curve" smooth="yes"/>
      <point x="119" y="213"/>
      <point x="305" y="-20"/>
    </contour>
  </outline>
</glyph>
<glyph name="p" format="1">
  <advance width="1229"/>
  <unicode hex="0070"/>
  <outline>
    <contour>
      <point x="662" y="1082" type="move" name="top"/>
    </contour>
    <contour>
      <point x="182" y="-479" type="line"/>
      <point x="305" y="-474" type="line"/>
      <point x="305" y="-89" type="line"/>
      <point x="296" y="162" type="line"/>
      <point x="365" y="43"/>
      <point x="489" y="-20"/>
      <point x="647" y="-20" type="curve" smooth="yes"/>
      <point x="927" y="-20"/>
      <point x="1110" y="193"/>
      <point x="1110" y="538" type="curve" smooth="yes"/>
      <point x="1110" y="899"/>
      <point x="946" y="1103"/>
      <point x="661" y="1103" type="curve" smooth="yes"/>
      <point x="470" y="1103"/>
      <point x="348" y="994"/>
      <point x="293" y="837" type="curve"/>
      <point x="281" y="1082" type="line"/>
      <point x="182" y="1082" type="line"/>
    </contour>
    <contour>
      <point x="641" y="71" type="curve" smooth="yes"/>
      <point x="462" y="71"/>
      <point x="353" y="162"/>
      <point x="300" y="307" type="curve"/>
      <point x="300" y="563" type="line"/>
      <point x="301" y="813"/>
      <point x="398" y="1012"/>
      <point x="652" y="1012" type="curve" smooth="yes"/>
      <point x="877" y="1012"/>
      <point x="984" y="841"/>
      <point x="984" y="539" type="curve" smooth="yes"/>
      <point x="984" y="245"/>
      <point x="865" y="71"/>
    </contour>
  </outline>
</glyph>
<glyph name="t" format="1">
  <advance width="770"/>
  <unicode hex="0074"/>
  <outline>
    <contour>
      <point x="298" y="1299" type="move" name="top"/>
    </contour>
    <contour>
      <point x="445" y="0" type="move" name="bot"/>
    </contour>
    <contour>
      <point x="352" y="629" type="move" name="mid"/>
    </contour>
    <contour>
      <point x="525" y="-9" type="curve" smooth="yes"/>
      <point x="587" y="-9"/>
      <point x="661" y="-1"/>
      <point x="661" y="-1" type="curve"/>
      <point x="663" y="79" type="line"/>
      <point x="663" y="79"/>
      <point x="581" y="75"/>
      <point x="533" y="75" type="curve" smooth="yes"/>
      <point x="407" y="77"/>
      <point x="359" y="115"/>
      <point x="359" y="286" type="curve" smooth="yes"/>
      <point x="359" y="1010" type="line"/>
      <point x="674" y="1010" type="line"/>
      <point x="674" y="1082" type="line"/>
      <point x="359" y="1082" type="line"/>
      <point x="359" y="1369" type="line"/>
      <point x="256" y="1359" type="line"/>
      <point x="237" y="1082" type="line"/>
      <point x="80" y="1072" type="line"/>
      <point x="80" y="1010" type="line"/>
      <point x="234" y="1010" type="line"/>
      <point x="234" y="280" type="line" smooth="yes"/>
      <point x="234" y="65"/>
      <point x="327" y="-9"/>
    </contour>
  </outline>
</glyph>
<glyph name="x" format="1">
  <advance width="1027"/>
  <unicode hex="0078"/>
  <outline>
    <contour>
      <point x="48" y="0" type="line"/>
      <point x="179" y="0" type="line"/>
      <point x="514" y="463" type="line"/>
      <point x="842" y="0" type="line"/>
      <point x="978" y="0" type="line"/>
      <point x="594" y="544" type="line"/>
      <point x="980" y="1082" type="line"/>
      <point x="848" y="1082" type="line"/>
      <point x="534" y="630" type="line"/>
      <point x="215" y="1082" type="line"/>
      <point x="77" y="1082" type="line"/>
      <point x="453" y="551" type="line"/>
    </contour>
  </outline>
</glyph>
<glyph name="y" format="1">
  <advance width="1090"/>
  <unicode hex="0079"/>
  <outline>
    <contour>
      <point x="570" y="1082" type="move" name="top"/>
    </contour>
    <contour>
      <point x="454" y="-405" type="line"/>
      <point x="1035" y="1082" type="line"/>
      <point x="916" y="1082" type="line"/>
      <point x="574" y="188" type="line"/>
      <point x="190" y="1082" type="line"/>
      <point x="63" y="1082" type="line"/>
      <point x="516" y="48" type="line"/>
      <point x="352" y="-371" type="line"/>
    </contour>
  </outline>
</glyph>
<glyph name="z" format="1">
  <advance width="933"/>
  <unicode hex="007A"/>
  <outline>
    <contour>
      <point x="487" y="1082" type="move" name="top"/>
    </contour>
    <contour>
      <point x="458" y="0" type="move" name="bot"/>
    </contour>
    <contour>
      <point x="115" y="0" type="line"/>
      <point x="824" y="0" type="line"/>
      <point x="821" y="85" type="line"/>
      <point x="233" y="85" type="line"/>
      <point x="818" y="999" type="line"/>
      <point x="818" y="1082" type="line"/>
      <point x="135" y="1082" type="line"/>
      <point x="137" y="998" type="line"/>
      <point x="701" y="998" type="line"/>
      <point x="115" y="82" type="line"/>
    </contour>
  </outline>
</glyph>
<glyph name="braceleft" format="1">
  <advance width="840"/>
  <unicode hex="007B"/>
  <outline>
    <contour>
      <point x="661" y="-278" type="curve"/>
      <point x="661" y="-199" type="line"/>
      <point x="510" y="-197"/>
      <point x="473" y="-149"/>
      <point x="473" y="51" type="curve" smooth="yes"/>
      <point x="473" y="323" type="line" smooth="yes"/>
      <point x="473" y="497"/>
      <point x="443" y="588"/>
      <point x="288" y="610" type="curve"/>
      <point x="443" y="632"/>
      <point x="473" y="722"/>
      <point x="473" y="897" type="curve" smooth="yes"/>
      <point x="473" y="1169" type="line" smooth="yes"/>
      <point x="473" y="1369"/>
      <point x="514" y="1417"/>
      <point x="665" y="1419" type="curve"/>
      <point x="665" y="1498" type="line"/>
      <point x="418" y="1498"/>
      <point x="357" y="1416"/>
      <point x="357" y="1176" type="curve" smooth="yes"/>
      <point x="357" y="955" type="line" smooth="yes"/>
      <point x="357" y="756"/>
      <point x="352" y="652"/>
      <point x="148" y="649" type="curve"/>
      <point x="148" y="571" type="line"/>
      <point x="353" y="568"/>
      <point x="357" y="464"/>
      <point x="357" y="265" type="curve" smooth="yes"/>
      <point x="357" y="44" type="line" smooth="yes"/>
      <point x="357" y="-195"/>
      <point x="413" y="-278"/>
    </contour>
  </outline>
</glyph>
<glyph name="braceright" format="1">
  <advance width="840"/>
  <unicode hex="007D"/>
  <outline>
    <contour>
      <point x="128" y="-278" type="line"/>
      <point x="376" y="-278"/>
      <point x="431" y="-195"/>
      <point x="431" y="44" type="curve" smooth="yes"/>
      <point x="431" y="265" type="line" smooth="yes"/>
      <point x="431" y="464"/>
      <point x="437" y="568"/>
      <point x="641" y="571" type="curve"/>
      <point x="641" y="649" type="line"/>
      <point x="438" y="652"/>
      <point x="431" y="756"/>
      <point x="431" y="955" type="curve" smooth="yes"/>
      <point x="431" y="1176" type="line" smooth="yes"/>
      <point x="431" y="1416"/>
      <point x="370" y="1498"/>
      <point x="123" y="1498" type="curve"/>
      <point x="123" y="1419" type="line"/>
      <point x="275" y="1417"/>
      <point x="316" y="1369"/>
      <point x="316" y="1169" type="curve" smooth="yes"/>
      <point x="316" y="897" type="line" smooth="yes"/>
      <point x="316" y="722"/>
      <point x="346" y="632"/>
      <point x="501" y="610" type="curve"/>
      <point x="346" y="588"/>
      <point x="316" y="497"/>
      <point x="316" y="323" type="curve" smooth="yes"/>
      <point x="316" y="51" type="line" smooth="yes"/>
      <point x="316" y="-149"/>
      <point x="279" y="-197"/>
      <point x="128" y="-199" type="curve"/>
    </contour>
  </outline>
</glyph>
<glyph name="asciitilde" format="1">
  <advance width="1208"/>
  <unicode hex="007E"/>
  <outline>
    <contour>
      <point x="117" y="507" type="line"/>
      <point x="166" y="602"/>
      <point x="255" y="678"/>
      <point x="346" y="678" type="curve" smooth="yes"/>
      <point x="415" y="678"/>
      <point x="502" y="637"/>
      <point x="616" y="588" type="curve" smooth="yes"/>
      <point x="695" y="553"/>
      <point x="774" y="523"/>
      <point x="832" y="523" type="curve" smooth="yes"/>
      <point x="949" y="523"/>
      <point x="1008" y="592"/>
      <point x="1056" y="725" type="curve"/>
      <point x="1023" y="789" type="line"/>
      <point x="1002" y="706"/>
      <point x="915" y="619"/>
      <point x="829" y="619" type="curve" smooth="yes"/>
      <point x="766" y="619"/>
      <point x="679" y="665"/>
      <point x="579" y="707" type="curve" smooth="yes"/>
      <point x="471" y="755"/>
      <point x="425" y="776"/>
      <point x="347" y="776" type="curve" smooth="yes"/>
      <point x="227" y="776"/>
      <point x="139" y="692"/>
      <point x="95" y="580" type="curve"/>
    </contour>
  </outline>
</glyph>
<glyph name="currency" format="1">
  <advance width="1354"/>
  <unicode hex="00A4"/>
  <outline>
    <contour>
      <point x="1121" y="227" type="line"/>
      <point x="1164" y="277" type="line"/>
      <point x="984" y="455" type="line"/>
      <point x="1040" y="526"/>
      <point x="1069" y="613"/>
      <point x="1069" y="710" type="curve" smooth="yes"/>
      <point x="1069" y="800"/>
      <point x="1042" y="888"/>
      <point x="983" y="967" type="curve"/>
      <point x="1165" y="1143" type="line"/>
      <point x="1121" y="1193" type="line"/>
      <point x="936" y="1019" type="line"/>
      <point x="863" y="1082"/>
      <point x="769" y="1119"/>
      <point x="666" y="1119" type="curve" smooth="yes"/>
      <point x="563" y="1119"/>
      <point x="469" y="1086"/>
      <point x="394" y="1020" type="curve"/>
      <point x="211" y="1193" type="line"/>
      <point x="163" y="1146" type="line"/>
      <point x="349" y="967" type="line"/>
      <point x="290" y="894"/>
      <point x="262" y="805"/>
      <point x="262" y="710" type="curve" smooth="yes"/>
      <point x="262" y="616"/>
      <point x="290" y="530"/>
      <point x="349" y="455" type="curve"/>
      <point x="164" y="279" type="line"/>
      <point x="211" y="228" type="line"/>
      <point x="396" y="403" type="line"/>
      <point x="470" y="339"/>
      <point x="562" y="305"/>
      <point x="666" y="305" type="curve" smooth="yes"/>
      <point x="771" y="305"/>
      <point x="862" y="338"/>
      <point x="936" y="402" type="curve"/>
    </contour>
    <contour>
      <point x="666" y="368" type="curve" smooth="yes"/>
      <point x="458" y="368"/>
      <point x="336" y="527"/>
      <point x="336" y="710" type="curve" smooth="yes"/>
      <point x="336" y="895"/>
      <point x="458" y="1054"/>
      <point x="666" y="1054" type="curve" smooth="yes"/>
      <point x="875" y="1054"/>
      <point x="995" y="893"/>
      <point x="995" y="710" type="curve" smooth="yes"/>
      <point x="995" y="528"/>
      <point x="876" y="368"/>
    </contour>
  </outline>
</glyph>
<glyph name="brokenbar" format="1">
  <advance width="284"/>
  <unicode hex="00A6"/>
  <outline>
    <contour>
      <point x="92" y="-160" type="line"/>
      <point x="180" y="-160" type="line"/>
      <point x="180" y="538" type="line"/>
      <point x="92" y="538" type="line"/>
    </contour>
    <contour>
      <point x="92" y="797" type="line"/>
      <point x="180" y="797" type="line"/>
      <point x="180" y="1491" type="line"/>
      <point x="92" y="1491" type="line"/>
    </contour>
  </outline>
</glyph>
<glyph name="section" format="1">
  <advance width="1052"/>
  <unicode hex="00A7"/>
  <outline>
    <contour>
      <point x="500" y="-65" type="curve" smooth="yes"/>
      <point x="701" y="-65"/>
      <point x="878" y="22"/>
      <point x="878" y="232" type="curve" smooth="yes"/>
      <point x="878" y="334"/>
      <point x="828" y="418"/>
      <point x="738" y="470" type="curve"/>
      <point x="825" y="518"/>
      <point x="882" y="577"/>
      <point x="882" y="683" type="curve" smooth="yes"/>
      <point x="882" y="819"/>
      <point x="799" y="877"/>
      <point x="580" y="958" type="curve" smooth="yes"/>
      <point x="348" y="1043"/>
      <point x="281" y="1062"/>
      <point x="281" y="1202" type="curve" smooth="yes"/>
      <point x="281" y="1332"/>
      <point x="393" y="1397"/>
      <point x="553" y="1397" type="curve" smooth="yes"/>
      <point x="649" y="1397"/>
      <point x="744" y="1371"/>
      <point x="816" y="1336" type="curve"/>
      <point x="843" y="1413" type="line"/>
      <point x="754" y="1454"/>
      <point x="650" y="1478"/>
      <point x="543" y="1478" type="curve" smooth="yes"/>
      <point x="336" y="1478"/>
      <point x="178" y="1384"/>
      <point x="178" y="1199" type="curve" smooth="yes"/>
      <point x="178" y="1095"/>
      <point x="221" y="1024"/>
      <point x="320" y="968" type="curve"/>
      <point x="239" y="918"/>
      <point x="180" y="851"/>
      <point x="180" y="747" type="curve" smooth="yes"/>
      <point x="180" y="597"/>
      <point x="263" y="555"/>
      <point x="473" y="482" type="curve" smooth="yes"/>
      <point x="733" y="392"/>
      <point x="777" y="331"/>
      <point x="777" y="231" type="curve" smooth="yes"/>
      <point x="776" y="81"/>
      <point x="656" y="17"/>
      <point x="505" y="17" type="curve" smooth="yes"/>
      <point x="398" y="17"/>
      <point x="290" y="47"/>
      <point x="197" y="92" type="curve"/>
      <point x="183" y="5" type="line"/>
      <point x="279" y="-40"/>
      <point x="393" y="-65"/>
    </contour>
    <contour>
      <point x="664" y="509" type="curve"/>
      <point x="654" y="514"/>
      <point x="564" y="548"/>
      <point x="515" y="561" type="curve" smooth="yes"/>
      <point x="322" y="631"/>
      <point x="278" y="649"/>
      <point x="278" y="753" type="curve" smooth="yes"/>
      <point x="278" y="855"/>
      <point x="346" y="904"/>
      <point x="405" y="928" type="curve"/>
      <point x="408" y="927"/>
      <point x="497" y="891"/>
      <point x="542" y="877" type="curve" smooth="yes"/>
      <point x="685" y="825"/>
      <point x="788" y="775"/>
      <point x="788" y="682" type="curve" smooth="yes"/>
      <point x="788" y="572"/>
      <point x="714" y="541"/>
    </contour>
  </outline>
</glyph>
<glyph name="ordfeminine" format="1">
  <advance width="1117"/>
  <unicode hex="00AA"/>
  <outline>
    <contour>
      <point x="444" y="597" type="curve" smooth="yes"/>
      <point x="557" y="597"/>
      <point x="673" y="623"/>
      <point x="775" y="753" type="curve"/>
      <point x="788" y="612" type="line"/>
      <point x="871" y="612" type="line"/>
      <point x="871" y="1233" type="line" smooth="yes"/>
      <point x="871" y="1477"/>
      <point x="732" y="1560"/>
      <point x="527" y="1560" type="curve" smooth="yes"/>
      <point x="415" y="1560"/>
      <point x="279" y="1527"/>
      <point x="204" y="1481" type="curve"/>
      <point x="240" y="1402" type="line"/>
      <point x="323" y="1453"/>
      <point x="435" y="1480"/>
      <point x="528" y="1480" type="curve" smooth="yes"/>
      <point x="684" y="1480"/>
      <point x="765" y="1402"/>
      <point x="765" y="1249" type="curve" smooth="yes"/>
      <point x="765" y="1130" type="line"/>
      <point x="570" y="1133" type="line" smooth="yes"/>
      <point x="274" y="1133"/>
      <point x="156" y="1034"/>
      <point x="156" y="853" type="curve" smooth="yes"/>
      <point x="156" y="690"/>
      <point x="274" y="597"/>
    </contour>
    <contour>
      <point x="455" y="676" type="curve" smooth="yes"/>
      <point x="350" y="676"/>
      <point x="263" y="728"/>
      <point x="263" y="853" type="curve" smooth="yes"/>
      <point x="263" y="988"/>
      <point x="318" y="1061"/>
      <point x="585" y="1061" type="curve" smooth="yes"/>
      <point x="765" y="1059" type="line"/>
      <point x="765" y="834" type="line"/>
      <point x="673" y="711"/>
      <point x="569" y="676"/>
    </contour>
  </outline>
</glyph>
<glyph name="uni00AD" format="1">
  <advance width="1065"/>
  <unicode hex="00AD"/>
  <outline>
    <contour>
      <point x="132" y="227" type="line"/>
      <point x="923" y="227" type="line"/>
      <point x="923" y="325" type="line"/>
      <point x="132" y="325" type="line"/>
    </contour>
  </outline>
</glyph>
<glyph name="macron" format="1">
  <advance width="1204"/>
  <unicode hex="00AF"/>
  <outline>
    <contour>
      <point x="602" y="1077" type="move" name="_top"/>
    </contour>
    <contour>
      <point x="579" y="1397" type="move" name="_mid"/>
    </contour>
    <contour>
      <point x="326" y="1364" type="line"/>
      <point x="835" y="1364" type="line"/>
      <point x="835" y="1432" type="line"/>
      <point x="326" y="1432" type="line"/>
    </contour>
  </outline>
</glyph>
<glyph name="degree" format="1">
  <advance width="861"/>
  <unicode hex="00B0"/>
  <outline>
    <contour>
      <point x="427" y="990" type="curve" smooth="yes"/>
      <point x="307" y="990"/>
      <point x="216" y="1079"/>
      <point x="216" y="1203" type="curve" smooth="yes"/>
      <point x="216" y="1328"/>
      <point x="310" y="1417"/>
      <point x="427" y="1417" type="curve" smooth="yes"/>
      <point x="548" y="1417"/>
      <point x="641" y="1328"/>
      <point x="641" y="1203" type="curve" smooth="yes"/>
      <point x="641" y="1081"/>
      <point x="548" y="990"/>
    </contour>
    <contour>
      <point x="426" y="914" type="curve" smooth="yes"/>
      <point x="577" y="914"/>
      <point x="727" y="1032"/>
      <point x="727" y="1203" type="curve" smooth="yes"/>
      <point x="727" y="1380"/>
      <point x="574" y="1491"/>
      <point x="426" y="1491" type="curve" smooth="yes"/>
      <point x="284" y="1491"/>
      <point x="130" y="1380"/>
      <point x="130" y="1203" type="curve" smooth="yes"/>
      <point x="130" y="1023"/>
      <point x="285" y="914"/>
    </contour>
  </outline>
</glyph>
<glyph name="plusminus" format="1">
  <advance width="1158"/>
  <unicode hex="00B1"/>
  <outline>
    <contour>
      <point x="521" y="190" type="line"/>
      <point x="614" y="190" type="line"/>
      <point x="614" y="597" type="line"/>
      <point x="985" y="597" type="line"/>
      <point x="985" y="673" type="line"/>
      <point x="613" y="673" type="line"/>
      <point x="613" y="1071" type="line"/>
      <point x="521" y="1071" type="line"/>
      <point x="521" y="673" type="line"/>
      <point x="140" y="673" type="line"/>
      <point x="140" y="597" type="line"/>
      <point x="521" y="597" type="line"/>
    </contour>
    <contour>
      <point x="110" y="0" type="line"/>
      <point x="1049" y="0" type="line"/>
      <point x="1049" y="85" type="line"/>
      <point x="110" y="85" type="line"/>
    </contour>
  </outline>
</glyph>
<glyph name="uni00B2" format="1">
  <advance width="750"/>
  <unicode hex="00B2"/>
  <outline>
    <contour>
      <point x="149" y="680" type="line"/>
      <point x="638" y="680" type="line"/>
      <point x="642" y="754" type="line"/>
      <point x="275" y="754" type="line"/>
      <point x="371" y="851"/>
      <point x="419" y="899"/>
      <point x="484" y="964" type="curve" smooth="yes"/>
      <point x="591" y="1074"/>
      <point x="643" y="1150"/>
      <point x="643" y="1267" type="curve" smooth="yes"/>
      <point x="643" y="1429"/>
      <point x="524" y="1515"/>
      <point x="380" y="1515" type="curve" smooth="yes"/>
      <point x="248" y="1515"/>
      <point x="151" y="1466"/>
      <point x="82" y="1379" type="curve"/>
      <point x="134" y="1321" type="line"/>
      <point x="196" y="1394"/>
      <point x="269" y="1436"/>
      <point x="382" y="1436" type="curve" smooth="yes"/>
      <point x="487" y="1436"/>
      <point x="552" y="1366"/>
      <point x="552" y="1265" type="curve" smooth="yes"/>
      <point x="552" y="1193"/>
      <point x="513" y="1126"/>
      <point x="418" y="1020" type="curve" smooth="yes"/>
      <point x="332" y="929"/>
      <point x="260" y="864"/>
      <point x="149" y="755" type="curve"/>
    </contour>
  </outline>
</glyph>
<glyph name="uni00B3" format="1">
  <advance width="872"/>
  <unicode hex="00B3"/>
  <outline>
    <contour>
      <point x="440" y="659" type="curve" smooth="yes"/>
      <point x="577" y="659"/>
      <point x="702" y="734"/>
      <point x="702" y="889" type="curve" smooth="yes"/>
      <point x="702" y="1005"/>
      <point x="627" y="1075"/>
      <point x="537" y="1098" type="curve"/>
      <point x="628" y="1121"/>
      <point x="695" y="1188"/>
      <point x="695" y="1296" type="curve" smooth="yes"/>
      <point x="695" y="1449"/>
      <point x="576" y="1512"/>
      <point x="444" y="1512" type="curve" smooth="yes"/>
      <point x="337" y="1512"/>
      <point x="238" y="1477"/>
      <point x="183" y="1415" type="curve"/>
      <point x="226" y="1357" type="line"/>
      <point x="273" y="1405"/>
      <point x="339" y="1437"/>
      <point x="439" y="1437" type="curve" smooth="yes"/>
      <point x="537" y="1437"/>
      <point x="611" y="1392"/>
      <point x="611" y="1294" type="curve" smooth="yes"/>
      <point x="611" y="1199"/>
      <point x="544" y="1131"/>
      <point x="424" y="1131" type="curve" smooth="yes"/>
      <point x="314" y="1131" type="line"/>
      <point x="314" y="1061" type="line"/>
      <point x="424" y="1062" type="line"/>
      <point x="543" y="1062"/>
      <point x="618" y="992"/>
      <point x="618" y="890" type="curve" smooth="yes"/>
      <point x="618" y="788"/>
      <point x="540" y="733"/>
      <point x="440" y="733" type="curve" smooth="yes"/>
      <point x="338" y="733"/>
      <point x="269" y="767"/>
      <point x="224" y="815" type="curve"/>
      <point x="181" y="754" type="line"/>
      <point x="236" y="692"/>
      <point x="336" y="659"/>
    </contour>
  </outline>
</glyph>
<glyph name="paragraph" format="1">
  <advance width="1128"/>
  <unicode hex="00B6"/>
  <outline>
    <contour>
      <point x="553" y="-198" type="line"/>
      <point x="643" y="-198" type="line"/>
      <point x="643" y="1373" type="line"/>
      <point x="795" y="1373" type="line"/>
      <point x="795" y="-198" type="line"/>
      <point x="885" y="-198" type="line"/>
      <point x="885" y="1456" type="line"/>
      <point x="529" y="1456" type="line" smooth="yes"/>
      <point x="186" y="1456"/>
      <point x="145" y="1256"/>
      <point x="145" y="1141" type="curve" smooth="yes"/>
      <point x="145" y="974"/>
      <point x="232" y="809"/>
      <point x="553" y="809" type="curve"/>
    </contour>
  </outline>
</glyph>
<glyph name="cedilla" format="1">
  <advance width="644"/>
  <unicode hex="00B8"/>
  <outline>
    <contour>
      <point x="337" y="4" type="move" name="_bot"/>
    </contour>
    <contour>
      <point x="300" y="-392" type="curve" smooth="yes"/>
      <point x="445" y="-392"/>
      <point x="549" y="-316"/>
      <point x="549" y="-200" type="curve" smooth="yes"/>
      <point x="549" y="-93"/>
      <point x="470" y="-42"/>
      <point x="378" y="-42" type="curve" smooth="yes"/>
      <point x="347" y="-42"/>
      <point x="313" y="-48"/>
      <point x="281" y="-60" type="curve"/>
      <point x="282" y="-100" type="line"/>
      <point x="308" y="-94"/>
      <point x="330" y="-93"/>
      <point x="350" y="-93" type="curve" smooth="yes"/>
      <point x="450" y="-93"/>
      <point x="471" y="-152"/>
      <point x="471" y="-198" type="curve" smooth="yes"/>
      <point x="471" y="-289"/>
      <point x="390" y="-330"/>
      <point x="303" y="-330" type="curve" smooth="yes"/>
      <point x="258" y="-330"/>
      <point x="212" y="-319"/>
      <point x="173" y="-298" type="curve"/>
      <point x="149" y="-360" type="line"/>
      <point x="194" y="-381"/>
      <point x="245" y="-392"/>
    </contour>
  </outline>
</glyph>
<glyph name="onequarter" format="1">
  <advance width="1670"/>
  <unicode hex="00BC"/>
  <outline>
    <contour>
      <point x="121" y="654" type="line"/>
      <point x="524" y="654" type="line"/>
      <point x="524" y="730" type="line"/>
      <point x="380" y="730" type="line"/>
      <point x="380" y="1501" type="line"/>
      <point x="298" y="1501" type="line"/>
      <point x="254" y="1457"/>
      <point x="162" y="1420"/>
      <point x="113" y="1401" type="curve"/>
      <point x="113" y="1321" type="line"/>
      <point x="159" y="1338"/>
      <point x="244" y="1373"/>
      <point x="281" y="1398" type="curve"/>
      <point x="281" y="730" type="line"/>
      <point x="121" y="730" type="line"/>
    </contour>
    <contour>
      <point x="1379" y="-1" type="line"/>
      <point x="1473" y="-1" type="line"/>
      <point x="1473" y="209" type="line"/>
      <point x="1597" y="209" type="line"/>
      <point x="1591" y="283" type="line"/>
      <point x="1474" y="283" type="line"/>
      <point x="1474" y="838" type="line"/>
      <point x="1369" y="838" type="line"/>
      <point x="981" y="272" type="line"/>
      <point x="981" y="209" type="line"/>
      <point x="1379" y="209" type="line"/>
    </contour>
    <contour>
      <point x="386" y="0" type="line"/>
      <point x="486" y="0" type="line"/>
      <point x="1373" y="1510" type="line"/>
      <point x="1273" y="1510" type="line"/>
    </contour>
    <contour>
      <point x="1086" y="283" type="line"/>
      <point x="1379" y="721" type="line"/>
      <point x="1379" y="283" type="line"/>
    </contour>
  </outline>
</glyph>
<glyph name="threequarters" format="1">
  <advance width="1725"/>
  <unicode hex="00BE"/>
  <outline>
    <contour>
      <point x="354" y="640" type="curve" smooth="yes"/>
      <point x="494" y="640"/>
      <point x="624" y="713"/>
      <point x="624" y="878" type="curve" smooth="yes"/>
      <point x="624" y="984"/>
      <point x="558" y="1064"/>
      <point x="455" y="1089" type="curve"/>
      <point x="553" y="1108"/>
      <point x="608" y="1194"/>
      <point x="608" y="1285" type="curve" smooth="yes"/>
      <point x="608" y="1434"/>
      <point x="495" y="1501"/>
      <point x="366" y="1501" type="curve" smooth="yes"/>
      <point x="282" y="1501"/>
      <point x="191" y="1472"/>
      <point x="122" y="1418" type="curve"/>
      <point x="165" y="1350" type="line"/>
      <point x="227" y="1394"/>
      <point x="299" y="1418"/>
      <point x="361" y="1418" type="curve" smooth="yes"/>
      <point x="447" y="1418"/>
      <point x="512" y="1373"/>
      <point x="512" y="1277" type="curve" smooth="yes"/>
      <point x="512" y="1184"/>
      <point x="450" y="1127"/>
      <point x="330" y="1127" type="curve" smooth="yes"/>
      <point x="247" y="1127" type="line"/>
      <point x="247" y="1045" type="line"/>
      <point x="331" y="1045" type="line"/>
      <point x="460" y="1045"/>
      <point x="524" y="983"/>
      <point x="524" y="877" type="curve" smooth="yes"/>
      <point x="524" y="766"/>
      <point x="445" y="723"/>
      <point x="352" y="723" type="curve" smooth="yes"/>
      <point x="287" y="723"/>
      <point x="215" y="744"/>
      <point x="160" y="780" type="curve"/>
      <point x="125" y="709" type="line"/>
      <point x="188" y="664"/>
      <point x="272" y="640"/>
    </contour>
    <contour>
      <point x="1411" y="-1" type="line"/>
      <point x="1504" y="-1" type="line"/>
      <point x="1504" y="209" type="line"/>
      <point x="1629" y="209" type="line"/>
      <point x="1622" y="283" type="line"/>
      <point x="1506" y="283" type="line"/>
      <point x="1506" y="838" type="line"/>
      <point x="1401" y="838" type="line"/>
      <point x="1012" y="272" type="line"/>
      <point x="1012" y="209" type="line"/>
      <point x="1411" y="209" type="line"/>
    </contour>
    <contour>
      <point x="421" y="0" type="line"/>
      <point x="521" y="0" type="line"/>
      <point x="1408" y="1510" type="line"/>
      <point x="1308" y="1510" type="line"/>
    </contour>
    <contour>
      <point x="1117" y="283" type="line"/>
      <point x="1411" y="721" type="line"/>
      <point x="1411" y="283" type="line"/>
    </contour>
  </outline>
</glyph>
<glyph name="multiply" format="1">
  <advance width="904"/>
  <unicode hex="00D7"/>
  <outline>
    <contour>
      <point x="568" y="281" type="line"/>
      <point x="486" y="570" type="line"/>
      <point x="755" y="657" type="line"/>
      <point x="745" y="726" type="line"/>
      <point x="745" y="726"/>
      <point x="490" y="633"/>
      <point x="482" y="641" type="curve"/>
      <point x="401" y="924" type="line"/>
      <point x="330" y="920" type="line"/>
      <point x="415" y="635" type="line"/>
      <point x="149" y="545" type="line"/>
      <point x="155" y="478" type="line"/>
      <point x="420" y="565" type="line"/>
      <point x="500" y="278" type="line"/>
    </contour>
  </outline>
</glyph>
<glyph name="Oslash" format="1">
  <advance width="1659"/>
  <unicode hex="00D8"/>
  <outline>
    <contour>
      <point x="823" y="1456" type="move" name="top"/>
    </contour>
    <contour>
      <point x="493" y="-229" type="line"/>
      <point x="587" y="12" type="line"/>
      <point x="657" y="-8"/>
      <point x="735" y="-19"/>
      <point x="822" y="-19" type="curve" smooth="yes"/>
      <point x="1276" y="-19"/>
      <point x="1486" y="286"/>
      <point x="1486" y="713" type="curve" smooth="yes"/>
      <point x="1486" y="1040"/>
      <point x="1368" y="1293"/>
      <point x="1137" y="1408" type="curve"/>
      <point x="1233" y="1649" type="line"/>
      <point x="1159" y="1676" type="line"/>
      <point x="1065" y="1437" type="line"/>
      <point x="993" y="1462"/>
      <point x="913" y="1475"/>
      <point x="823" y="1475" type="curve" smooth="yes"/>
      <point x="371" y="1475"/>
      <point x="151" y="1170"/>
      <point x="151" y="716" type="curve" smooth="yes"/>
      <point x="151" y="390"/>
      <point x="267" y="141"/>
      <point x="517" y="36" type="curve"/>
      <point x="423" y="-203" type="line"/>
    </contour>
    <contour>
      <point x="555" y="131" type="line"/>
      <point x="357" y="227"/>
      <point x="277" y="442"/>
      <point x="277" y="716" type="curve" smooth="yes"/>
      <point x="277" y="1112"/>
      <point x="440" y="1378"/>
      <point x="822" y="1378" type="curve" smooth="yes"/>
      <point x="900" y="1378"/>
      <point x="969" y="1367"/>
      <point x="1029" y="1346" type="curve"/>
    </contour>
    <contour>
      <point x="819" y="77" type="curve" smooth="yes"/>
      <point x="746" y="77"/>
      <point x="681" y="86"/>
      <point x="624" y="104" type="curve"/>
      <point x="1099" y="1313" type="line"/>
      <point x="1282" y="1211"/>
      <point x="1360" y="994"/>
      <point x="1360" y="716" type="curve" smooth="yes"/>
      <point x="1360" y="341"/>
      <point x="1215" y="77"/>
    </contour>
  </outline>
</glyph>
<glyph name="Thorn" format="1">
  <advance width="1202"/>
  <unicode hex="00DE"/>
  <outline>
    <contour>
      <point x="211" y="0" type="line"/>
      <point x="336" y="0" type="line"/>
      <point x="336" y="436" type="line"/>
      <point x="633" y="436" type="line" smooth="yes"/>
      <point x="945" y="436"/>
      <point x="1076" y="563"/>
      <point x="1076" y="817" type="curve" smooth="yes"/>
      <point x="1076" y="1062"/>
      <point x="896" y="1160"/>
      <point x="637" y="1160" type="curve" smooth="yes"/>
      <point x="336" y="1160" type="line"/>
      <point x="336" y="1468" type="line"/>
      <point x="211" y="1468" type="line"/>
    </contour>
    <contour>
      <point x="336" y="527" type="line"/>
      <point x="336" y="1068" type="line"/>
      <point x="635" y="1068" type="line" smooth="yes"/>
      <point x="823" y="1068"/>
      <point x="951" y="1012"/>
      <point x="951" y="818" type="curve" smooth="yes"/>
      <point x="951" y="593"/>
      <point x="856" y="527"/>
      <point x="639" y="527" type="curve" smooth="yes"/>
    </contour>
  </outline>
</glyph>
<glyph name="eth" format="1">
  <advance width="1311"/>
  <unicode hex="00F0"/>
  <outline>
    <contour>
      <point x="638" y="-27" type="curve" smooth="yes"/>
      <point x="980" y="-27"/>
      <point x="1128" y="213"/>
      <point x="1128" y="493" type="curve" smooth="yes"/>
      <point x="1128" y="627"/>
      <point x="1098" y="772"/>
      <point x="1050" y="870" type="curve" smooth="yes"/>
      <point x="988" y="998"/>
      <point x="890" y="1135"/>
      <point x="661" y="1376" type="curve"/>
      <point x="939" y="1478" type="line"/>
      <point x="897" y="1553" type="line"/>
      <point x="596" y="1439" type="line"/>
      <point x="420" y="1612" type="line"/>
      <point x="284" y="1612" type="line"/>
      <point x="508" y="1407" type="line"/>
      <point x="261" y="1311" type="line"/>
      <point x="301" y="1234" type="line"/>
      <point x="566" y="1336" type="line"/>
      <point x="810" y="1097"/>
      <point x="917" y="932"/>
      <point x="970" y="806" type="curve"/>
      <point x="918" y="860"/>
      <point x="828" y="975"/>
      <point x="635" y="975" type="curve" smooth="yes"/>
      <point x="356" y="975"/>
      <point x="151" y="777"/>
      <point x="151" y="486" type="curve" smooth="yes"/>
      <point x="151" y="229"/>
      <point x="305" y="-27"/>
    </contour>
    <contour>
      <point x="644" y="61" type="curve" smooth="yes"/>
      <point x="389" y="61"/>
      <point x="274" y="278"/>
      <point x="274" y="483" type="curve" smooth="yes"/>
      <point x="274" y="706"/>
      <point x="409" y="882"/>
      <point x="638" y="882" type="curve" smooth="yes"/>
      <point x="884" y="882"/>
      <point x="1016" y="687"/>
      <point x="1016" y="499" type="curve" smooth="yes"/>
      <point x="1016" y="236"/>
      <point x="893" y="61"/>
    </contour>
  </outline>
</glyph>
<glyph name="oslash" format="1">
  <advance width="1201"/>
  <unicode hex="00F8"/>
  <outline>
    <contour>
      <point x="281" y="-156" type="line"/>
      <point x="1010" y="1194" type="line"/>
      <point x="943" y="1226" type="line"/>
      <point x="219" y="-122" type="line"/>
    </contour>
    <component base="o"/>
  </outline>
</glyph>
<glyph name="kgreenlandic" format="1">
  <advance width="1067"/>
  <unicode hex="0138"/>
  <outline>
    <contour>
      <point x="175" y="0" type="line"/>
      <point x="297" y="0" type="line"/>
      <point x="297" y="402" type="line"/>
      <point x="431" y="520" type="line"/>
      <point x="891" y="0" type="line"/>
      <point x="1022" y="0" type="line"/>
      <point x="1022" y="16" type="line"/>
      <point x="509" y="583" type="line"/>
      <point x="1006" y="1065" type="line"/>
      <point x="1006" y="1082" type="line"/>
      <point x="877" y="1082" type="line"/>
      <point x="291" y="513" type="line"/>
      <point x="297" y="721" type="line"/>
      <point x="297" y="1082" type="line"/>
      <point x="175" y="1082" type="line"/>
    </contour>
  </outline>
</glyph>
<glyph name="oe" format="1">
  <advance width="1963"/>
  <unicode hex="0153"/>
  <outline>
    <contour>
      <point x="601" y="-19" type="curve" smooth="yes"/>
      <point x="795" y="-19"/>
      <point x="962" y="99"/>
      <point x="1022" y="295" type="curve"/>
      <point x="1084" y="89"/>
      <point x="1260" y="-19"/>
      <point x="1456" y="-19" type="curve" smooth="yes"/>
      <point x="1626" y="-18"/>
      <point x="1726" y="29"/>
      <point x="1822" y="85" type="curve"/>
      <point x="1790" y="163" type="line"/>
      <point x="1778" y="163" type="line"/>
      <point x="1663" y="103"/>
      <point x="1590" y="74"/>
      <point x="1464" y="74" type="curve" smooth="yes"/>
      <point x="1267" y="74"/>
      <point x="1084" y="195"/>
      <point x="1083" y="521" type="curve"/>
      <point x="1841" y="521" type="line"/>
      <point x="1841" y="521"/>
      <point x="1847" y="562"/>
      <point x="1847" y="594" type="curve" smooth="yes"/>
      <point x="1847" y="898"/>
      <point x="1700" y="1082"/>
      <point x="1447" y="1082" type="curve" smooth="yes"/>
      <point x="1271" y="1082"/>
      <point x="1089" y="968"/>
      <point x="1027" y="760" type="curve"/>
      <point x="976" y="961"/>
      <point x="812" y="1082"/>
      <point x="601" y="1082" type="curve" smooth="yes"/>
      <point x="294" y="1082"/>
      <point x="119" y="849"/>
      <point x="119" y="528" type="curve" smooth="yes"/>
      <point x="119" y="213"/>
      <point x="294" y="-19"/>
    </contour>
    <contour>
      <point x="601" y="71" type="curve" smooth="yes"/>
      <point x="355" y="71"/>
      <point x="241" y="279"/>
      <point x="241" y="527" type="curve" smooth="yes"/>
      <point x="241" y="783"/>
      <point x="354" y="991"/>
      <point x="601" y="991" type="curve" smooth="yes"/>
      <point x="852" y="991"/>
      <point x="959" y="782"/>
      <point x="959" y="526" type="curve" smooth="yes"/>
      <point x="959" y="280"/>
      <point x="854" y="71"/>
    </contour>
    <contour>
      <point x="1086" y="601" type="line"/>
      <point x="1108" y="829"/>
      <point x="1244" y="990"/>
      <point x="1455" y="990" type="curve" smooth="yes"/>
      <point x="1654" y="990"/>
      <point x="1741" y="851"/>
      <point x="1747" y="601" type="curve"/>
    </contour>
  </outline>
</glyph>
<glyph name="florin" format="1">
  <advance width="951"/>
  <unicode hex="0192"/>
  <outline>
    <contour>
      <point x="93" y="-221" type="curve" smooth="yes"/>
      <point x="250" y="-221"/>
      <point x="347" y="-111"/>
      <point x="400" y="141" type="curve" smooth="yes"/>
      <point x="552" y="836" type="line"/>
      <point x="797" y="836" type="line"/>
      <point x="808" y="902" type="line"/>
      <point x="566" y="902" type="line"/>
      <point x="619" y="1190" type="line" smooth="yes"/>
      <point x="646" y="1334"/>
      <point x="690" y="1413"/>
      <point x="789" y="1413" type="curve" smooth="yes"/>
      <point x="867" y="1413"/>
      <point x="909" y="1363"/>
      <point x="910" y="1250" type="curve"/>
      <point x="998" y="1250" type="line"/>
      <point x="998" y="1429"/>
      <point x="904" y="1488"/>
      <point x="786" y="1488" type="curve" smooth="yes"/>
      <point x="622" y="1488"/>
      <point x="537" y="1385"/>
      <point x="499" y="1190" type="curve" smooth="yes"/>
      <point x="445" y="902" type="line"/>
      <point x="281" y="902" type="line"/>
      <point x="269" y="836" type="line"/>
      <point x="435" y="836" type="line"/>
      <point x="283" y="142" type="line"/>
      <point x="250" y="-12"/>
      <point x="250" y="-154"/>
      <point x="76" y="-154" type="curve" smooth="yes"/>
      <point x="50" y="-154"/>
      <point x="20" y="-151"/>
      <point x="-16" y="-144" type="curve"/>
      <point x="-30" y="-204" type="line"/>
      <point x="15" y="-216"/>
      <point x="56" y="-221"/>
    </contour>
  </outline>
</glyph>
<glyph name="dotaccent" format="1">
  <advance width="348"/>
  <unicode hex="02D9"/>
  <outline>
    <contour>
      <point x="171" y="1082" type="move" name="_top"/>
    </contour>
    <contour>
      <point x="172" y="1323" type="curve" smooth="yes"/>
      <point x="232" y="1323"/>
      <point x="263" y="1356"/>
      <point x="263" y="1414" type="curve" smooth="yes"/>
      <point x="263" y="1471"/>
      <point x="232" y="1503"/>
      <point x="172" y="1503" type="curve" smooth="yes"/>
      <point x="109" y="1503"/>
      <point x="79" y="1471"/>
      <point x="79" y="1414" type="curve" smooth="yes"/>
      <point x="79" y="1356"/>
      <point x="109" y="1323"/>
    </contour>
  </outline>
</glyph>
<glyph name="ring" format="1">
  <advance width="652"/>
  <unicode hex="02DA"/>
  <outline>
    <contour>
      <point x="322" y="1077" type="move" name="_top"/>
    </contour>
    <contour>
      <point x="322" y="1265" type="curve" smooth="yes"/>
      <point x="267" y="1265"/>
      <point x="223" y="1311"/>
      <point x="223" y="1366" type="curve" smooth="yes"/>
      <point x="223" y="1422"/>
      <point x="266" y="1466"/>
      <point x="322" y="1466" type="curve" smooth="yes"/>
      <point x="378" y="1466"/>
      <point x="423" y="1422"/>
      <point x="423" y="1366" type="curve" smooth="yes"/>
      <point x="423" y="1311"/>
      <point x="378" y="1265"/>
    </contour>
    <contour>
      <point x="322" y="1201" type="curve" smooth="yes"/>
      <point x="418" y="1201"/>
      <point x="495" y="1272"/>
      <point x="495" y="1368" type="curve" smooth="yes"/>
      <point x="495" y="1463"/>
      <point x="418" y="1533"/>
      <point x="322" y="1533" type="curve" smooth="yes"/>
      <point x="227" y="1533"/>
      <point x="150" y="1463"/>
      <point x="150" y="1368" type="curve" smooth="yes"/>
      <point x="150" y="1272"/>
      <point x="227" y="1201"/>
    </contour>
  </outline>
</glyph>
<glyph name="hungarumlaut" format="1">
  <advance width="716"/>
  <unicode hex="02DD"/>
  <outline>
    <contour>
      <point x="269" y="1077" type="move" name="_top"/>
    </contour>
    <contour>
      <point x="135" y="1256" type="line"/>
      <point x="207" y="1256" type="line"/>
      <point x="447" y="1607" type="line"/>
      <point x="322" y="1607" type="line"/>
    </contour>
    <contour>
      <point x="373" y="1256" type="line"/>
      <point x="444" y="1256" type="line"/>
      <point x="697" y="1607" type="line"/>
      <point x="566" y="1607" type="line"/>
    </contour>
  </outline>
</glyph>
<glyph name="uni0307" format="1">
  <advance width="324"/>
  <unicode hex="0307"/>
  <outline>
    <contour>
      <point x="170" y="1362" type="curve" smooth="yes"/>
      <point x="230" y="1362"/>
      <point x="260" y="1393"/>
      <point x="260" y="1450" type="curve" smooth="yes"/>
      <point x="260" y="1507"/>
      <point x="230" y="1537"/>
      <point x="170" y="1537" type="curve" smooth="yes"/>
      <point x="109" y="1537"/>
      <point x="79" y="1507"/>
      <point x="79" y="1450" type="curve" smooth="yes"/>
      <point x="79" y="1393"/>
      <point x="109" y="1362"/>
    </contour>
  </outline>
</glyph>
<glyph name="dblgravecomb" format="1">
  <advance width="766"/>
  <unicode hex="030F"/>
  <outline>
    <contour>
      <point x="532" y="1077" type="move" name="_top"/>
    </contour>
    <contour>
      <point x="356" y="1256" type="line"/>
      <point x="427" y="1256" type="line"/>
      <point x="234" y="1607" type="line"/>
      <point x="104" y="1607" type="line"/>
    </contour>
    <contour>
      <point x="593" y="1256" type="line"/>
      <point x="666" y="1256" type="line"/>
      <point x="478" y="1607" type="line"/>
      <point x="353" y="1607" type="line"/>
    </contour>
  </outline>
</glyph>
<glyph name="breveinvertedcomb" format="1">
  <advance width="753"/>
  <unicode hex="0311"/>
  <outline>
    <contour>
      <point x="394" y="1077" type="move" name="_top"/>
    </contour>
    <contour>
      <point x="176" y="1282" type="curve"/>
      <point x="251" y="1282" type="line"/>
      <point x="251" y="1392"/>
      <point x="320" y="1435"/>
      <point x="388" y="1435" type="curve" smooth="yes"/>
      <point x="458" y="1435"/>
      <point x="534" y="1392"/>
      <point x="534" y="1282" type="curve"/>
      <point x="605" y="1282" type="line"/>
      <point x="605" y="1443"/>
      <point x="502" y="1508"/>
      <point x="388" y="1508" type="curve" smooth="yes"/>
      <point x="276" y="1508"/>
      <point x="176" y="1444"/>
    </contour>
  </outline>
</glyph>
<glyph name="commaturnedabovecomb" format="1">
  <advance width="600"/>
  <unicode hex="0312"/>
  <outline>
    <contour>
      <point x="301" y="1077" type="move" name="_top"/>
    </contour>
    <contour>
      <point x="226" y="1287" type="line"/>
      <point x="366" y="1287" type="line"/>
      <point x="366" y="1394"/>
      <point x="379" y="1780"/>
      <point x="379" y="1780" type="curve"/>
      <point x="314" y="1780" type="line"/>
      <point x="314" y="1780"/>
      <point x="227" y="1359"/>
      <point x="227" y="1313" type="curve"/>
    </contour>
  </outline>
</glyph>
<glyph name="pi" format="1">
  <advance width="1345"/>
  <unicode hex="03C0"/>
  <outline>
    <contour>
      <point x="1078" y="-9" type="curve" smooth="yes"/>
      <point x="1139" y="-9"/>
      <point x="1197" y="12"/>
      <point x="1238" y="44" type="curve"/>
      <point x="1238" y="121" type="line"/>
      <point x="1210" y="110"/>
      <point x="1164" y="96"/>
      <point x="1123" y="96" type="curve" smooth="yes"/>
      <point x="1023" y="96"/>
      <point x="979" y="180"/>
      <point x="979" y="375" type="curve" smooth="yes"/>
      <point x="979" y="510"/>
      <point x="999" y="725"/>
      <point x="1035" y="977" type="curve"/>
      <point x="1275" y="977" type="line"/>
      <point x="1275" y="1082" type="line"/>
      <point x="417" y="1082" type="line" smooth="yes"/>
      <point x="191" y="1082"/>
      <point x="130" y="1000"/>
      <point x="130" y="781" type="curve"/>
      <point x="200" y="781" type="line"/>
      <point x="212" y="918"/>
      <point x="252" y="977"/>
      <point x="347" y="977" type="curve" smooth="yes"/>
      <point x="470" y="977" type="line"/>
      <point x="384" y="360" type="line" smooth="yes"/>
      <point x="353" y="141"/>
      <point x="216" y="80"/>
      <point x="115" y="80" type="curve"/>
      <point x="115" y="4" type="line"/>
      <point x="414" y="4"/>
      <point x="465" y="113"/>
      <point x="487" y="334" type="curve" smooth="yes"/>
      <point x="550" y="977" type="line"/>
      <point x="948" y="977" type="line"/>
      <point x="906" y="685"/>
      <point x="870" y="435"/>
      <point x="870" y="276" type="curve" smooth="yes"/>
      <point x="870" y="81"/>
      <point x="925" y="-9"/>
    </contour>
  </outline>
</glyph>
<glyph name="endash" format="1">
  <advance width="1324"/>
  <unicode hex="2013"/>
  <outline>
    <contour>
      <point x="135" y="574" type="line"/>
      <point x="1189" y="574" type="line"/>
      <point x="1189" y="665" type="line"/>
      <point x="135" y="665" type="line"/>
    </contour>
  </outline>
</glyph>
<glyph name="emdash" format="1">
  <advance width="2261"/>
  <unicode hex="2014"/>
  <outline>
    <contour>
      <point x="60" y="558" type="line"/>
      <point x="2201" y="558" type="line"/>
      <point x="2201" y="648" type="line"/>
      <point x="60" y="648" type="line"/>
    </contour>
  </outline>
</glyph>
<glyph name="quoteleft" format="1">
  <advance width="522"/>
  <unicode hex="2018"/>
  <outline>
    <contour>
      <point x="183" y="1011" type="line"/>
      <point x="316" y="1011" type="line"/>
      <point x="367" y="1472" type="line"/>
      <point x="285" y="1472" type="line"/>
    </contour>
  </outline>
</glyph>
<glyph name="quoteright" format="1">
  <advance width="522"/>
  <unicode hex="2019"/>
  <outline>
    <contour>
      <point x="183" y="1011" type="line"/>
      <point x="266" y="1011" type="line"/>
      <point x="367" y="1472" type="line"/>
      <point x="235" y="1472" type="line"/>
    </contour>
  </outline>
</glyph>
<glyph name="quotesinglbase" format="1">
  <advance width="422"/>
  <unicode hex="201A"/>
  <outline>
    <contour>
      <point x="96" y="-273" type="line"/>
      <point x="167" y="-273" type="line"/>
      <point x="272" y="173" type="line"/>
      <point x="160" y="173" type="line"/>
    </contour>
  </outline>
</glyph>
<glyph name="quotedblleft" format="1">
  <advance width="867"/>
  <unicode hex="201C"/>
  <outline>
    <contour>
      <point x="183" y="1011" type="line"/>
      <point x="316" y="1011" type="line"/>
      <point x="367" y="1472" type="line"/>
      <point x="285" y="1472" type="line"/>
    </contour>
    <contour>
      <point x="496" y="1011" type="line"/>
      <point x="627" y="1011" type="line"/>
      <point x="680" y="1472" type="line"/>
      <point x="597" y="1472" type="line"/>
    </contour>
  </outline>
</glyph>
<glyph name="quotedblbase" format="1">
  <advance width="651"/>
  <unicode hex="201E"/>
  <outline>
    <contour>
      <point x="112" y="-273" type="line"/>
      <point x="179" y="-273" type="line"/>
      <point x="275" y="173" type="line"/>
      <point x="171" y="173" type="line"/>
    </contour>
    <contour>
      <point x="363" y="-273" type="line"/>
      <point x="426" y="-273" type="line"/>
      <point x="528" y="173" type="line"/>
      <point x="417" y="173" type="line"/>
    </contour>
  </outline>
</glyph>
<glyph name="daggerdbl" format="1">
  <advance width="974"/>
  <unicode hex="2021"/>
  <outline>
    <contour>
      <point x="497" y="254" type="line"/>
      <point x="779" y="254" type="line"/>
      <point x="779" y="416" type="line"/>
      <point x="627" y="416" type="line"/>
      <point x="627" y="832" type="line"/>
      <point x="779" y="832" type="line"/>
      <point x="779" y="1009" type="line"/>
      <point x="627" y="1009" type="line"/>
      <point x="627" y="1338" type="line"/>
      <point x="480" y="1338" type="line"/>
      <point x="480" y="1166" type="line"/>
      <point x="199" y="1166" type="line"/>
      <point x="199" y="1005" type="line"/>
      <point x="350" y="1005" type="line"/>
      <point x="350" y="588" type="line"/>
      <point x="199" y="588" type="line"/>
      <point x="199" y="411" type="line"/>
      <point x="350" y="411" type="line"/>
      <point x="350" y="83" type="line"/>
      <point x="497" y="83" type="line"/>
    </contour>
  </outline>
</glyph>
<glyph name="bullet" format="1">
  <advance width="844"/>
  <unicode hex="2022"/>
  <outline>
    <contour>
      <point x="410" y="446" type="curve" smooth="yes"/>
      <point x="564" y="446"/>
      <point x="720" y="553"/>
      <point x="720" y="768" type="curve" smooth="yes"/>
      <point x="720" y="983"/>
      <point x="569" y="1090"/>
      <point x="417" y="1090" type="curve" smooth="yes"/>
      <point x="263" y="1090"/>
      <point x="110" y="981"/>
      <point x="110" y="765" type="curve" smooth="yes"/>
      <point x="110" y="550"/>
      <point x="259" y="446"/>
    </contour>
  </outline>
</glyph>
<glyph name="perthousand" format="1">
  <advance width="2545"/>
  <unicode hex="2030"/>
  <outline>
    <contour>
      <point x="2100" y="69" type="curve" smooth="yes"/>
      <point x="1934" y="69"/>
      <point x="1875" y="196"/>
      <point x="1875" y="370" type="curve" smooth="yes"/>
      <point x="1875" y="540"/>
      <point x="1934" y="669"/>
      <point x="2100" y="669" type="curve" smooth="yes"/>
      <point x="2265" y="669"/>
      <point x="2323" y="546"/>
      <point x="2323" y="370" type="curve" smooth="yes"/>
      <point x="2323" y="201"/>
      <point x="2266" y="69"/>
    </contour>
    <contour>
      <point x="2097" y="-10" type="curve" smooth="yes"/>
      <point x="2322" y="-10"/>
      <point x="2421" y="156"/>
      <point x="2421" y="369" type="curve" smooth="yes"/>
      <point x="2421" y="587"/>
      <point x="2325" y="748"/>
      <point x="2097" y="748" type="curve" smooth="yes"/>
      <point x="1876" y="748"/>
      <point x="1776" y="584"/>
      <point x="1776" y="369" type="curve" smooth="yes"/>
      <point x="1776" y="156"/>
      <point x="1872" y="-10"/>
    </contour>
    <component base="percent" xOffset="5"/>
  </outline>
</glyph>
<glyph name="guilsinglleft" format="1">
  <advance width="649"/>
  <unicode hex="2039"/>
  <outline>
    <contour>
      <point x="425" y="142" type="line"/>
      <point x="531" y="142" type="line"/>
      <point x="232" y="563" type="line"/>
      <point x="536" y="992" type="line"/>
      <point x="428" y="992" type="line"/>
      <point x="119" y="563" type="line"/>
    </contour>
  </outline>
</glyph>
<glyph name="fraction" format="1">
  <advance width="1150"/>
  <unicode hex="2044"/>
  <outline>
    <contour>
      <point x="173" y="0" type="line"/>
      <point x="281" y="0" type="line"/>
      <point x="973" y="1539" type="line"/>
      <point x="871" y="1539" type="line"/>
    </contour>
  </outline>
</glyph>
<glyph name="uni2074" format="1">
  <advance width="709"/>
  <unicode hex="2074"/>
  <outline>
    <contour>
      <point x="444" y="645" type="line"/>
      <point x="541" y="645" type="line"/>
      <point x="540" y="869" type="line"/>
      <point x="666" y="869" type="line"/>
      <point x="666" y="941" type="line"/>
      <point x="543" y="941" type="line"/>
      <point x="543" y="1507" type="line"/>
      <point x="438" y="1507" type="line"/>
      <point x="83" y="947" type="line"/>
      <point x="83" y="869" type="line"/>
      <point x="444" y="869" type="line"/>
    </contour>
    <contour>
      <point x="181" y="941" type="line"/>
      <point x="446" y="1386" type="line"/>
      <point x="444" y="941" type="line"/>
    </contour>
  </outline>
</glyph>
<glyph name="Euro" format="1">
  <advance width="1351"/>
  <unicode hex="20AC"/>
  <outline>
    <contour>
      <point x="-11" y="555" type="line"/>
      <point x="884" y="555" type="line"/>
      <point x="890" y="636" type="line"/>
      <point x="217" y="636" type="line"/>
      <point x="217" y="837" type="line"/>
      <point x="895" y="837" type="line"/>
      <point x="902" y="916" type="line"/>
      <point x="4" y="916" type="line"/>
      <point x="-1" y="837" type="line"/>
      <point x="154" y="837" type="line"/>
      <point x="153" y="636" type="line"/>
      <point x="-5" y="636" type="line"/>
    </contour>
    <component base="C" xOffset="-28"/>
  </outline>
</glyph>
<glyph name="uni2113" format="1">
  <advance width="1136"/>
  <unicode hex="2113"/>
  <outline>
    <contour>
      <point x="535" y="-21" type="curve" smooth="yes"/>
      <point x="739" y="-21"/>
      <point x="874" y="98"/>
      <point x="874" y="98" type="curve"/>
      <point x="853" y="173" type="line"/>
      <point x="750" y="110"/>
      <point x="665" y="75"/>
      <point x="581" y="75" type="curve" smooth="yes"/>
      <point x="483" y="75"/>
      <point x="442" y="126"/>
      <point x="442" y="227" type="curve" smooth="yes"/>
      <point x="442" y="278"/>
      <point x="453" y="342"/>
      <point x="471" y="417" type="curve" smooth="yes"/>
      <point x="518" y="608" type="line"/>
      <point x="817" y="865" type="line" smooth="yes"/>
      <point x="1055" y="1069"/>
      <point x="1146" y="1202"/>
      <point x="1146" y="1412" type="curve" smooth="yes"/>
      <point x="1146" y="1602"/>
      <point x="1023" y="1676"/>
      <point x="896" y="1677" type="curve" smooth="yes"/>
      <point x="781" y="1677"/>
      <point x="660" y="1628"/>
      <point x="597" y="1396" type="curve" smooth="yes"/>
      <point x="387" y="621" type="line"/>
      <point x="86" y="391" type="line"/>
      <point x="125" y="334" type="line"/>
      <point x="360" y="515" type="line"/>
      <point x="327" y="404"/>
      <point x="311" y="311"/>
      <point x="311" y="237" type="curve" smooth="yes"/>
      <point x="311" y="53"/>
      <point x="398" y="-21"/>
    </contour>
    <contour>
      <point x="548" y="731" type="curve"/>
      <point x="694" y="1334" type="line" smooth="yes"/>
      <point x="735" y="1496"/>
      <point x="809" y="1584"/>
      <point x="911" y="1584" type="curve" smooth="yes"/>
      <point x="1017" y="1584"/>
      <point x="1060" y="1509"/>
      <point x="1060" y="1410" type="curve" smooth="yes"/>
      <point x="1060" y="1264"/>
      <point x="992" y="1117"/>
      <point x="786" y="937" type="curve" smooth="yes"/>
      <point x="785" y="937"/>
      <point x="588" y="767"/>
    </contour>
  </outline>
</glyph>
<glyph name="trademark" format="1">
  <advance width="2006"/>
  <unicode hex="2122"/>
  <outline>
    <contour>
      <point x="912" y="527" type="line"/>
      <point x="989" y="527" type="line"/>
      <point x="1008" y="1322" type="line"/>
      <point x="1345" y="632" type="line"/>
      <point x="1401" y="632" type="line"/>
      <point x="1724" y="1319" type="line"/>
      <point x="1739" y="527" type="line"/>
      <point x="1819" y="527" type="line"/>
      <point x="1792" y="1455" type="line"/>
      <point x="1713" y="1455" type="line"/>
      <point x="1374" y="736" type="line"/>
      <point x="1019" y="1455" type="line"/>
      <point x="939" y="1455" type="line"/>
    </contour>
    <contour>
      <point x="389" y="527" type="line"/>
      <point x="474" y="527" type="line"/>
      <point x="474" y="1387" type="line"/>
      <point x="750" y="1387" type="line"/>
      <point x="750" y="1455" type="line"/>
      <point x="95" y="1455" type="line"/>
      <point x="95" y="1387" type="line"/>
      <point x="389" y="1387" type="line"/>
    </contour>
  </outline>
</glyph>
<glyph name="uni2126" format="1">
  <advance width="1729"/>
  <unicode hex="2126"/>
  <outline>
    <contour>
      <point x="118" y="0" type="line"/>
      <point x="783" y="0" type="line"/>
      <point x="783" y="104" type="line"/>
      <point x="523" y="185"/>
      <point x="264" y="412"/>
      <point x="264" y="766" type="curve" smooth="yes"/>
      <point x="264" y="1097"/>
      <point x="511" y="1364"/>
      <point x="869" y="1364" type="curve" smooth="yes"/>
      <point x="1218" y="1364"/>
      <point x="1464" y="1096"/>
      <point x="1464" y="766" type="curve" smooth="yes"/>
      <point x="1464" y="412"/>
      <point x="1198" y="186"/>
      <point x="955" y="104" type="curve"/>
      <point x="955" y="0" type="line"/>
      <point x="1611" y="0" type="line"/>
      <point x="1611" y="104" type="line"/>
      <point x="1040" y="104" type="line"/>
      <point x="1054" y="66" type="line"/>
      <point x="1318" y="140"/>
      <point x="1605" y="372"/>
      <point x="1605" y="794" type="curve" smooth="yes"/>
      <point x="1605" y="1149"/>
      <point x="1317" y="1477"/>
      <point x="869" y="1477" type="curve" smooth="yes"/>
      <point x="414" y="1477"/>
      <point x="123" y="1148"/>
      <point x="123" y="792" type="curve" smooth="yes"/>
      <point x="123" y="371"/>
      <point x="410" y="140"/>
      <point x="683" y="66" type="curve"/>
      <point x="697" y="104" type="line"/>
      <point x="118" y="104" type="line"/>
    </contour>
  </outline>
</glyph>
<glyph name="estimated" format="1">
  <advance width="1079"/>
  <unicode hex="212E"/>
  <outline>
    <contour>
      <point x="579" y="323" type="curve" smooth="yes"/>
      <point x="753" y="323"/>
      <point x="867" y="398"/>
      <point x="951" y="497" type="curve"/>
      <point x="908" y="540" type="line"/>
      <point x="825" y="452"/>
      <point x="731" y="384"/>
      <point x="579" y="384" type="curve" smooth="yes"/>
      <point x="386" y="384"/>
      <point x="285" y="544"/>
      <point x="284" y="774" type="curve"/>
      <point x="958" y="774" type="line"/>
      <point x="958" y="1064"/>
      <point x="833" y="1256"/>
      <point x="564" y="1256" type="curve" smooth="yes"/>
      <point x="292" y="1256"/>
      <point x="99" y="1057"/>
      <point x="99" y="790" type="curve" smooth="yes"/>
      <point x="99" y="524"/>
      <point x="257" y="323"/>
    </contour>
    <contour>
      <point x="286" y="841" type="line"/>
      <point x="298" y="1059"/>
      <point x="424" y="1206"/>
      <point x="569" y="1206" type="curve" smooth="yes"/>
      <point x="745" y="1206"/>
      <point x="862" y="1036"/>
      <point x="862" y="841" type="curve"/>
    </contour>
  </outline>
</glyph>
<glyph name="partialdiff" format="1">
  <advance width="1182"/>
  <unicode hex="2202"/>
  <outline>
    <contour>
      <point x="478" y="-19" type="curve" smooth="yes"/>
      <point x="811" y="-19"/>
      <point x="1033" y="381"/>
      <point x="1033" y="907" type="curve" smooth="yes"/>
      <point x="1033" y="1318"/>
      <point x="826" y="1560"/>
      <point x="539" y="1560" type="curve" smooth="yes"/>
      <point x="447" y="1560"/>
      <point x="346" y="1535"/>
      <point x="241" y="1481" type="curve"/>
      <point x="269" y="1414" type="line"/>
      <point x="361" y="1455"/>
      <point x="445" y="1475"/>
      <point x="520" y="1475" type="curve" smooth="yes"/>
      <point x="769" y="1475"/>
      <point x="910" y="1259"/>
      <point x="918" y="953" type="curve" smooth="yes"/>
      <point x="919" y="942"/>
      <point x="919" y="930"/>
      <point x="919" y="919" type="curve"/>
      <point x="455" y="918"/>
      <point x="182" y="545"/>
      <point x="182" y="270" type="curve" smooth="yes"/>
      <point x="182" y="109"/>
      <point x="276" y="-19"/>
    </contour>
    <contour>
      <point x="483" y="52" type="curve" smooth="yes"/>
      <point x="368" y="52"/>
      <point x="314" y="137"/>
      <point x="314" y="252" type="curve" smooth="yes"/>
      <point x="314" y="487"/>
      <point x="538" y="845"/>
      <point x="917" y="849" type="curve"/>
      <point x="909" y="484"/>
      <point x="746" y="52"/>
    </contour>
  </outline>
</glyph>
<glyph name="uni2206" format="1">
  <advance width="1330"/>
  <unicode hex="2206"/>
  <outline>
    <contour>
      <point x="93" y="0" type="line"/>
      <point x="1237" y="0" type="line"/>
      <point x="1237" y="63" type="line"/>
      <point x="718" y="1514" type="line"/>
      <point x="607" y="1514" type="line"/>
      <point x="93" y="63" type="line"/>
    </contour>
    <contour>
      <point x="217" y="104" type="line"/>
      <point x="629" y="1274" type="line"/>
      <point x="661" y="1390" type="line"/>
      <point x="695" y="1274" type="line"/>
      <point x="1114" y="104" type="line"/>
    </contour>
  </outline>
</glyph>
<glyph name="summation" format="1">
  <advance width="1252"/>
  <unicode hex="2211"/>
  <outline>
    <contour>
      <point x="107" y="-315" type="line"/>
      <point x="1136" y="-315" type="line"/>
      <point x="1136" y="-189" type="line"/>
      <point x="253" y="-189" type="line"/>
      <point x="865" y="613" type="line"/>
      <point x="274" y="1408" type="line"/>
      <point x="1096" y="1408" type="line"/>
      <point x="1096" y="1524" type="line"/>
      <point x="130" y="1524" type="line"/>
      <point x="130" y="1447" type="line"/>
      <point x="695" y="610" type="line"/>
      <point x="107" y="-241" type="line"/>
    </contour>
  </outline>
</glyph>
<glyph name="radical" format="1">
  <advance width="1209"/>
  <unicode hex="221A"/>
  <outline>
    <contour>
      <point x="610" y="-162" type="line"/>
      <point x="691" y="-162" type="line"/>
      <point x="1147" y="1683" type="line"/>
      <point x="1044" y="1683" type="line"/>
      <point x="1005" y="1519"/>
      <point x="673" y="183"/>
      <point x="634" y="19" type="curve"/>
      <point x="606" y="111"/>
      <point x="344" y="782"/>
      <point x="313" y="871" type="curve"/>
      <point x="87" y="820" type="line"/>
      <point x="99" y="741" type="line"/>
      <point x="241" y="771" type="line"/>
    </contour>
  </outline>
</glyph>
<glyph name="integral" format="1">
  <advance width="814"/>
  <unicode hex="222B"/>
  <outline>
    <contour>
      <point x="242" y="-414" type="curve" smooth="yes"/>
      <point x="425" y="-414"/>
      <point x="489" y="-281"/>
      <point x="489" y="-38" type="curve" smooth="yes"/>
      <point x="489" y="1138" type="line" smooth="yes"/>
      <point x="489" y="1335"/>
      <point x="514" y="1410"/>
      <point x="630" y="1410" type="curve" smooth="yes"/>
      <point x="657" y="1410"/>
      <point x="687" y="1405"/>
      <point x="723" y="1394" type="curve"/>
      <point x="723" y="1474" type="line"/>
      <point x="678" y="1484"/>
      <point x="638" y="1489"/>
      <point x="604" y="1489" type="curve" smooth="yes"/>
      <point x="444" y="1489"/>
      <point x="387" y="1381"/>
      <point x="387" y="1142" type="curve" smooth="yes"/>
      <point x="387" y="-46" type="line" smooth="yes"/>
      <point x="387" y="-223"/>
      <point x="360" y="-331"/>
      <point x="225" y="-331" type="curve" smooth="yes"/>
      <point x="198" y="-331"/>
      <point x="165" y="-327"/>
      <point x="129" y="-317" type="curve"/>
      <point x="129" y="-400" type="line"/>
      <point x="171" y="-410"/>
      <point x="209" y="-414"/>
    </contour>
  </outline>
</glyph>
<glyph name="approxequal" format="1">
  <advance width="1250"/>
  <unicode hex="2248"/>
  <outline>
    <contour>
      <point x="909" y="464" type="curve" smooth="yes"/>
      <point x="1022" y="464"/>
      <point x="1089" y="529"/>
      <point x="1109" y="669" type="curve"/>
      <point x="1060" y="707" type="line"/>
      <point x="1045" y="594"/>
      <point x="986" y="539"/>
      <point x="906" y="539" type="curve" smooth="yes"/>
      <point x="840" y="539"/>
      <point x="753" y="576"/>
      <point x="653" y="624" type="curve" smooth="yes"/>
      <point x="543" y="676"/>
      <point x="455" y="711"/>
      <point x="370" y="711" type="curve" smooth="yes"/>
      <point x="257" y="711"/>
      <point x="176" y="644"/>
      <point x="141" y="505" type="curve"/>
      <point x="190" y="464" type="line"/>
      <point x="219" y="581"/>
      <point x="289" y="635"/>
      <point x="373" y="635" type="curve" smooth="yes"/>
      <point x="443" y="635"/>
      <point x="524" y="600"/>
      <point x="614" y="558" type="curve" smooth="yes"/>
      <point x="730" y="501"/>
      <point x="828" y="464"/>
    </contour>
    <contour>
      <point x="909" y="824" type="curve" smooth="yes"/>
      <point x="1022" y="824"/>
      <point x="1089" y="889"/>
      <point x="1109" y="1028" type="curve"/>
      <point x="1060" y="1066" type="line"/>
      <point x="1045" y="953"/>
      <point x="986" y="898"/>
      <point x="906" y="898" type="curve" smooth="yes"/>
      <point x="840" y="898"/>
      <point x="753" y="935"/>
      <point x="653" y="983" type="curve" smooth="yes"/>
      <point x="543" y="1035"/>
      <point x="455" y="1070"/>
      <point x="370" y="1070" type="curve" smooth="yes"/>
      <point x="257" y="1070"/>
      <point x="176" y="1003"/>
      <point x="141" y="865" type="curve"/>
      <point x="190" y="823" type="line"/>
      <point x="219" y="940"/>
      <point x="289" y="994"/>
      <point x="373" y="994" type="curve" smooth="yes"/>
      <point x="443" y="994"/>
      <point x="524" y="960"/>
      <point x="614" y="918" type="curve" smooth="yes"/>
      <point x="730" y="860"/>
      <point x="828" y="824"/>
    </contour>
  </outline>
</glyph>
<glyph name="lessequal" format="1">
  <advance width="1231"/>
  <unicode hex="2264"/>
  <outline>
    <contour>
      <point x="1082" y="234" type="line"/>
      <point x="1082" y="336" type="line"/>
      <point x="300" y="754" type="line"/>
      <point x="1080" y="1200" type="line"/>
      <point x="1080" y="1303" type="line"/>
      <point x="157" y="785" type="line"/>
      <point x="157" y="722" type="line"/>
    </contour>
    <contour>
      <point x="139" y="2" type="line"/>
      <point x="1090" y="2" type="line"/>
      <point x="1090" y="92" type="line"/>
      <point x="139" y="93" type="line"/>
    </contour>
  </outline>
</glyph>
<glyph name="greaterequal" format="1">
  <advance width="1228"/>
  <unicode hex="2265"/>
  <outline>
    <contour>
      <point x="169" y="244" type="line"/>
      <point x="1052" y="728" type="line"/>
      <point x="1052" y="788" type="line"/>
      <point x="174" y="1307" type="line"/>
      <point x="174" y="1201" type="line"/>
      <point x="968" y="758" type="line"/>
      <point x="169" y="346" type="line"/>
    </contour>
    <contour>
      <point x="128" y="11" type="line"/>
      <point x="1078" y="11" type="line"/>
      <point x="1078" y="117" type="line"/>
      <point x="128" y="115" type="line"/>
    </contour>
  </outline>
</glyph>
<glyph name="caron.alt" format="1">
  <advance width="804"/>
  <outline>
    <contour>
      <point x="328" y="1082" type="move" name="_caron.alt"/>
    </contour>
    <contour>
      <point x="531" y="1183" type="line"/>
      <point x="626" y="1183" type="line"/>
      <point x="714" y="1532" type="line"/>
      <point x="583" y="1532" type="line"/>
    </contour>
  </outline>
</glyph>
<glyph name="dotlessj" format="1">
  <advance width="527"/>
  <outline>
    <contour>
      <point x="33" y="-337" type="line"/>
      <point x="90" y="-334" type="line"/>
      <point x="261" y="-322"/>
      <point x="352" y="-255"/>
      <point x="352" y="-17" type="curve" smooth="yes"/>
      <point x="352" y="1082" type="line"/>
      <point x="228" y="1082" type="line"/>
      <point x="228" y="45" type="line" smooth="yes"/>
      <point x="228" y="-155"/>
      <point x="225" y="-216"/>
      <point x="72" y="-226" type="curve" smooth="yes"/>
      <point x="26" y="-232" type="line"/>
    </contour>
  </outline>
</glyph>
<glyph name="slashbar" format="1">
  <advance width="697"/>
  <outline>
    <contour>
      <point x="364" y="782" type="move" name="_mid"/>
    </contour>
    <contour>
      <point x="110" y="581" type="line"/>
      <point x="636" y="910" type="line"/>
      <point x="636" y="1009" type="line"/>
      <point x="110" y="680" type="line"/>
    </contour>
  </outline>
</glyph>
